<svg xmlns="http://www.w3.org/2000/svg" width="4800" height="4756" viewBox="0 0 4800 4756">
  <defs>
    <style>
      .cls-1 {
        fill: #ff9800;
        fill-rule: evenodd;
      }
    </style>
  </defs>
  <path id="Shape_317_1" data-name="Shape 317 1" class="cls-1" d="M2355.1,52.357c222.06-1.945,418.35,19.441,595.07,64.554C3730.06,316,4278.86,827.55,4563.91,1521.97c59.73,145.49,98.63,303.73,133.14,477.1q11.085,89.25,22.18,178.53,1.515,27.225,3.03,54.46,2.025,49.935,4.03,99.86v92.8q-0.495,30.765-1,61.53-6.06,77.145-12.11,154.32-13.605,89.76-27.23,179.54c-35.13,159.08-74.5,306.78-132.12,442.8-280.03,661-786.72,1127.01-1504.82,1350.59-92.72,28.87-191.58,44.34-293.5,64.56q-55.47,7.05-110.94,14.12c-63,10.76-130.59,1.57-196.68,12.1q-46.395-.495-92.79-1.01-30.765-.5-61.52-1c-47.86-7.59-98.82-4.37-144.23-12.11-83.59-14.24-162.35-18.26-239.04-37.32-177.28-44.07-325.4-92.82-476.05-159.37C930.5,4270.96,502.437,3839.72,280.431,3335.54c-47.334-107.5-84.943-218.07-121.031-338.91-32.246-107.98-46.988-224.67-68.584-346.98-9.407-53.28-3.372-107.08-12.1-163.4-5.693-36.73-8.064-116.07-2.017-154.33,6.939-43.9-.5-88.38,6.052-129.11,9.915-61.68,7.6-120.47,19.163-178.53,29.739-149.36,54.975-290.89,104.894-419.6,40.6-104.68,78.149-210.85,132.125-303.61,37.194-63.91,72.151-128.02,110.945-189.62,131.247-208.4,320.96-416.3,514.381-562.834,66.625-50.474,134.905-100.2,206.765-145.246q76.635-43.872,153.3-87.753c92.69-54.04,198.96-91.534,303.59-132.135,143.33-55.618,300.62-80.662,470-111.96L2273.4,55.383Zm0,80.693-79.68,3.026-172.47,16.138c-161.9,30.068-312.6,54.661-449.83,107.926-84.29,32.716-164.5,67.749-244.08,102.883-72.29,31.922-140.94,76.207-205.75,117.005C982.023,619.317,784.633,793.17,629.4,998.477c-59.039,78.083-115.049,159.323-166.417,245.1q-32.776,60.015-65.559,120.03c-51.211,87.85-83.594,190.38-122.039,289.49-48.607,125.3-70.636,265.22-97.833,411.53-11.319,60.89-7.04,122.54-17.146,187.61q-1.513,39.84-3.026,79.68v93.81q1.512,39.33,3.026,78.67c9.445,59.65,4.718,116.41,15.129,172.48,22.074,118.89,39.757,232.03,72.618,336.89,31.782,101.43,64.73,194.98,104.893,286.46,219.376,499.71,637.825,911.92,1138.7,1130.71,137.72,60.16,283.91,105.19,445.79,145.24,69.48,17.19,140.57,20.4,215.84,33.29,44.41,7.61,94.41,4.65,141.2,12.1q30.765,0.51,61.53,1.01,45.375,0.51,90.77,1.01c61.96-9.8,125.29-1.07,184.57-11.09l124.06-16.14c92.87-18.55,183.36-33.06,268.29-59.51,690.59-215.1,1182.71-662.04,1452.36-1297.14,61.33-144.43,100.04-299.99,137.17-471.04,16.19-74.54,14.54-151.2,27.23-231.99,5.5-34.95-.78-73.21,5.05-110.95V2295.61q-5.04-73.62-10.09-147.26c-11.09-65.65-14.45-131.24-28.24-193.67-33.41-151.26-71.94-290.5-125.06-419.6C4233.16,929.85,3789.84,509.3,3175.08,269.218c-108.52-42.382-226.69-69.715-349.98-96.831C2683.03,141.138,2526.39,133.175,2355.1,133.05Zm460.93,211.818h17.14c4.16,10.7,4.76,26.993,1.01,37.32-33.53,18.2-49.84,15.97-72.62-12.1,2.43-9.463,10.35-17.633,16.14-24.208Zm52.44,16.138c22.2-.8,36.37,6.905,42.36,22.191-0.47,31.579-49.56,43.493-63.54,17.147C2835.75,382.684,2860.05,367.114,2868.47,361.006Zm-906.72,41.355c23.58-.312,53.29-6.587,80.69-3.026,12.79,40.019,38.47,119.374,35.3,162.394-17.05,3.939-61.43,20.531-71.61,6.052,0.36-11.4-7.44-26.821-11.1-38.329q-10.59-40.846-21.18-81.7C1969.68,433.62,1962.15,418.88,1961.75,402.361Zm342.92,4.035c60.64-.876,131.39-5.379,185.58,4.034,10.94,1.9,44.52,1.028,43.37,10.087q-0.51,29.752-1.01,59.511c1.35-.673,2.69-1.345,4.04-2.018q31.26-25.213,62.53-50.433c35.99-21.829,85.73-18.78,136.16-15.129-8,55.958-37.84,104.426-63.54,143.229-41.67-.707-81.66-6.524-120.02-13.113L2461,539.538c-48.18-5.362-119.04-4.827-162.38,2.018l-79.68,5.043-36.31,6.052c-17.58,13.118-22.95,39.981-42.36,52.45-18.23,11.711-56.25,4.34-80.69,4.035v-1.009c9.8-20.3,34.08-31.742,47.41-49.424,0.16-31.673-30.73-109.195-24.21-125.074,23.23-3.89,41.89-11.89,70.6-12.1,4.4,17.934,11.36,50.4,23.2,62.536h1.01c-0.09-20.371-9.17-58.752-5.04-68.588Q2238.595,410.935,2304.67,406.4Zm-382.25,4.034c7.18,0.4,15.4,1.454,20.17,4.035q9.075,27.231,18.15,54.467,12.615,52.95,25.22,105.909c-79.32,27.934-161.7,31.717-238.03,60.52-17.88,6.747-41.38,8.975-58.5,19.164-1.55,55.634-47.52,103.706-96.82,111.961-0.34-.336-0.68-0.672-1.01-1.008,3.23-27.153,24.57-48.663,12.1-78.676-13.11-31.557-37.16-58-55.47-85.736-5.28-7.987-21.32-23.854-18.16-35.3,18-3.981,61.79-33.458,77.67-27.233,7.34,17.776,30.41,56.288,52.44,58.5,19.22-5.688,33.39-12.583,50.43-19.165v-3.026c-22.67-16.731-42.2-40.988-67.57-54.467,0.33-1.009.67-2.018,1-3.026,46.68-16.718,90.25-43.854,152.3-44.381-0.95,9.755-3.75,79.77,2.02,87.753,32.48-8.7,74.73-9.284,92.79-32.277q-12.615-52.948-25.22-105.909c0.34-.672.68-1.345,1.01-2.017Zm1017.66,9.078c-3.87,33.03-38.8,59.963-47.4,94.814,42.9,1.315,48.83-53.621,73.63-74.641l62.53,25.217c-4.43,21.228-75.21,129.275-90.77,141.212-40.19.735-73.99-14.362-106.92-24.208l-130.1-26.225,2.01-2.017q15.135-20.172,30.26-40.347C2781.15,448.122,2824.59,411.413,2940.08,419.508Zm-614.23,27.234-77.66,6.052q-0.51,13.615-1.01,27.234h5.04l84.73-2.018,108.92,2.018V477c-1.53-6.415-.62-18.013-3.02-23.2C2407.4,447.473,2366.51,446.839,2325.85,446.742Zm323.76,4.035-34.29,17.147c0.33,0.672.67,1.345,1,2.017,12.68,4.4,24.81,12.838,42.37,8.069V477C2654.99,469.391,2655.41,456.4,2649.61,450.777Zm405.45,24.207c26.06,1.365,43.9,18.914,64.55,26.225v4.035q-11.595,15.633-23.2,31.268c-26.26,36.013-66.7,103.038-109.93,119.022-18.41,6.807-72.31,10.328-87.75-2.017,11.6-19.6,40.51-26.923,58.5-40.347,16.75-12.508,26.61-38.849,38.32-56.484Q3025.31,515.84,3055.06,474.984Zm-236.01,21.182c9.76,0.407,24.05,1.457,29.25-3.026-1.32-5.73-1.48-12.3-4.03-16.138l-25.22,2.017v17.147Zm445.8,22.191c0.67,0.672,1.34,1.345,2.02,2.017-13.35,34.271-60.74,69.417-64.55,100.866h1c22.82-6.272,42.42-12.241,67.58-17.148l44.38,7.061v-1.009q-9.075-9.077-18.16-18.155-14.115-16.137-28.24-32.277c0.34-.673.68-1.345,1.01-2.018,51.62-3.019,113.92,32.282,124.06,71.615,5.93,23.01-6.92,40.48-9.08,63.545,0.34,0.336.67,0.673,1.01,1.009,49-.5,88.84,5.216,109.94,32.277,11.08,14.225,11.33,32.884,20.17,50.433,8.36,16.6,66.03,51.161,87.74,53.459v-1.009c-12.92-37.759-28.33-61.56-49.42-89.771,0.34-1.008.68-2.017,1.01-3.026h1.01c34.7,8.76,111.59,45.471,100.86,94.814-4.64,21.36-17.23,37.659-23.2,56.485-3.57,11.263-.38,50.681-6.05,58.5-57.44-23.181-95.12-72.385-146.24-102.883-28.12-16.772-68.15,11.377-104.9-1.009-24.21-8.162-52.66-26.25-61.52-49.424-6.09-15.931-1.55-40.622-9.08-51.441-40.69-13.324-72.72-50.456-119.01-59.511-12.62-2.468-45.3,22.34-56.48,27.234-43.26,18.918-106.97,3.189-128.1-25.217,0.34-.672.68-1.345,1.01-2.017,25.99,0.689,65.32-1.7,78.67-15.13-7.1-19.773-24.02-26.15-38.32-38.329,13.96-37.745,65.82-91.772,108.92-100.866C3190.28,519.548,3234.45,533.822,3264.85,518.357Zm-137.17,61.528c0.4,7.371,1.27,20.488,5.04,25.216,19.53-4.363,31.29-3.387,35.3-23.2h-2.01Zm-1635.93,6.052c12.71,1.447,16.29,10.906,24.2,17.147,13.87,31.8,49.24,54.893,58.5,90.779-40.31,37.633-105.26,54.5-154.31,82.71l-150.28,85.736c-31.99,19.964-60.18,45.824-95.82,61.528-0.67-.336-1.34-0.673-2.02-1.009-0.37-87.668-54.67-119.225,0-188.619,5.65-7.17,28.08-34.906,35.3-31.268,34.51,14.452,52.07,53.4,84.73,70.606q26.715-16.641,53.45-33.286v-3.026c-9.21-7.074-48.39-54.439-46.39-65.563,14.86-4.046,48.66-32.824,62.53-29.251,34.06,17.76,54.84,95.283,105.9,28.243-14.14-15.072-26.91-33.966-37.32-52.45l3.03-6.052q15.12-8.572,30.26-17.147Q1477.625,590.476,1491.75,585.937Zm1288.98,3.026c22.99-.627,32.63,7.107,44.37,17.147-8.57,48.212-80.65,28.206-71.61,0C2758.63,595.366,2769.53,593.9,2780.73,588.963Zm68.58,15.129c18.44-.694,39.11,7.817,40.34,24.208-15.1,32.2-47.15,30.176-65.56,3.026C2826.8,617.227,2838.06,610.075,2849.31,604.092ZM1132.69,687.811c14.8,0.15,30.21,6.921,40.34,13.112v1.009c-14.5,58.413-48.39,36.321-73.62,7.061,0.33-1.345.67-2.69,1-4.035Zm-55.47,44.381c18.43-.817,42.22,11.514,37.31,28.242-1.21,8.325-4.74,9.186-10.08,13.113-22.4,16.454-44.99,8.263-59.51-12.1C1050.03,741.219,1059.86,740.365,1077.22,732.192Zm458.91,3.026,5.04,1.008q17.145,16.137,34.29,32.278c-0.34,1.008-.67,2.017-1.01,3.025-21.03,10.62-45.64,33.053-67.57,6.052-3.63-4.459-9.7-8.311-8.07-15.129C1505.72,749.215,1525.96,745.549,1536.13,735.218Zm1860.84,19.164c-4.01,7.281-10.05,18.248-6.05,26.225,19.97,5.126,32.73.54,44.38-10.086V767.5C3424.64,761.461,3410.77,757.134,3396.97,754.382Zm-2188.64,30.26q-2.01,13.615-4.03,27.234c12.52-1.839,30.87-7.406,38.33-15.13l-3.03-2.017Zm228.95,2.017c19.8-.091,34.89,11.548,44.38,22.191v5.043c-12.27,9.236-21.48,18.913-40.34,22.191-10.13,1.759-16.7-2.618-23.2,0-5,47.857-48.31,44.433-71.61,12.1v-3.026c12.31-10.048,18.7-20.572,38.33-24.207h21.18C1410.92,800.817,1419.98,794.657,1437.28,786.659Zm1666.19,4.035c49.61,11.979,81.68,60.605,53.46,123.056-21.14,46.765-65.21,98.19-97.83,136.17q-151.275,183.555-302.58,367.15Q2705.6,1471.025,2654.65,1525c-62.42,70.32-119.46,142.47-156.33,236.02-31.05,78.77,11,194.49,27.23,261.24,9.03,37.13,6.61,79.04,14.12,120.03q1.005,24.21,2.02,48.42c4.45,27.61,1.38,66.15-4.04,88.76-23.54,98.38-42.72,155.79-124.05,196.69-19.82,9.97-40.23,9.16-67.58,14.12-64.92,11.79-125.91-33.27-158.35-57.49-125.42-93.68-167.12-211.99-204.74-385.31-12.93-59.57,4.23-131.67-7.06-193.66-3.7-20.34,3.47-42.99-4.03-58.5q-54.465-62.025-108.93-124.07c-81.34-103.22-175.17-199.77-241.05-317.73-14.25-25.5-22.07-52.98-33.29-81.7-19.83-50.75-40.7-104.33-51.44-161.38-3.22-17.12-7.25-46.7-2.01-65.56,3.6-12.98,36.95-46.74,52.44-47.411,46.28,16.431,44.08,69.591,55.48,119.021,19.47,84.45,28.28,173.71,57.49,246.11,25.24,62.57,61.82,91.75,98.84,139.2q78.66,91.77,157.34,183.57c23.43,29.41,79.29,75.97,91.78,109.95q0.51,117.99,1.01,236.02c5.64,34.81,3.55,68.71,11.09,100.87,28.98,123.51,75.18,232.7,200.71,262.25q33.285,0.495,66.57,1.01c94.15,0,131.44-57.06,150.28-132.14,3.99-15.91,1.08-31.53,4.03-50.43v-75.65q-15.12-67.065-30.26-134.15-9.57-51.945-19.16-103.89c-8.87-44.89-10.56-118.31,2.02-159.37,11.94-38.97,36.5-63.32,58.5-91.79,30.04-38.87,62.93-75.44,92.79-113.98,115.29-148.82,248.5-283.89,353-442.8,33.72-51.26,64.23-127.636,89.77-185.589C3049.17,859.546,3063.42,817.342,3103.47,790.694ZM1175.05,1086.23c-5.72,85.64-74.96,154.24-136.16,184.58-23.14,11.48-90.589,20.79-105.9,34.3q-9.075,14.625-18.154,29.25c15.327-.14,27.065-7.11,39.335-11.1,42.731-13.86,79.251-30,118-44.38,22.72-8.42,54.28-12.19,61.53,13.12,7.49,26.15-6.64,46.01-25.22,50.43-28.46,6.77-45.41-15.05-67.57-19.17q-18.66,6.57-37.32,13.12c-26.928,10.11-89.12,32.79-105.9,50.43,1.336,71.01-26.251,108.41-39.335,165.42,1.681-1.34,3.362-2.69,5.043-4.03q8.572-14.13,17.146-28.25,11.092-30.255,22.189-60.52c6.365-17.92,8.014-39.49,22.189-49.42,18.133-12.71,60.313-6.87,81.7-6.05-9.177,102.06-90.1,168.89-167.43,207.78a528.471,528.471,0,0,1-79.679,32.28c-10.193,3.17-37.046,4.98-42.361,13.11l-9.077,52.45h1.009c1.344-1.34,2.689-2.69,4.034-4.03q78.158-47.415,156.331-94.82c17.661-4.15,48.989,17.53,38.327,39.34-5.344,10.93-24.019,24.77-34.292,31.27-11.411-4.86-27.967-19.48-44.378-16.14-24.525,5-102.9,59.62-109.937,79.68-12.39,35.36-9.018,82.09-15.128,121.04q-0.505,21.69-1.009,43.37l4.034-2.01q7.565-25.725,15.129-51.44c10.055-43.79-8.083-89.59,43.37-98.85,10.05-1.81,29.215-4.34,40.343-1.01,1.807,121.63-63.481,167.92-124.056,227.96-19.45,19.27-41.574,27.82-41.353,67.58,0.048,8.46-.424,15.87,2.018,19.16,35.4-24.68,74.549-76.06,100.859-110.95,13.729-18.21,29.78-51.27,51.438-60.52,33.637-14.37,66.072,53.32,31.266,67.58q-30.759,2.01-61.524,4.03-9.58,12.615-19.163,25.22c-25.845,33.7-64.292,65.06-71.61,115.99q9.581,43.38,19.163,86.75c6.569,32.72,4.621,73.32,21.18,96.83h1.009v-2.02c4.665-9.39,4.941-29.69,3.026-41.35-3.581-21.81-1.78-40.01-6.052-59.51-10.65-48.63-21.345-76.88,24.206-97.84q16.641-6.06,33.284-12.11c5.45,22.55,9.939,46.08,14.12,69.6,17.549,98.74-39.8,196.56-79.678,246.11q-21.178,21.69-42.361,43.38,6.555,23.7,13.111,47.4h4.035q13.11-14.625,26.223-29.25,19.667-34.29,39.335-68.59,16.136-23.19,32.275-46.4c14.1-23.48,26.054-63.37,51.438-74.64,24.18-10.72,61.288,28.03,52.447,52.45-7.026,19.41-29,29.14-51.438,33.29q-12.606.51-25.215,1.01c-21.044,13.59-60.453,93.24-72.618,121.04-4.485,10.24-16.822,32.06-15.129,45.39q12.606,22.695,25.214,45.39,10.086,24.2,20.172,48.41c9.534,23.49,19.875,82.93,36.309,96.83h1.009v-2.01c17.736-42.23-34.38-149.47-47.4-175.51,18.188-24.38,44.18-49.54,68.584-67.58,1.345,0.34,2.69.67,4.035,1.01q10.084,17.64,20.172,35.3c9.769,19.06,15.028,44.2,20.171,66.57,18.414,80.08-14.714,180.81-44.378,226.95q-26.724,38.325-53.455,76.66c-8.672,22.39,21.019,69.02,36.309,73.63q10.086-18.66,20.172-37.32,13.615-38.835,27.232-77.67,12.606-28.74,25.215-57.49c11.015-35.43,13.069-85.32,52.447-93.81,33.115-7.13,54.263,36.71,40.343,69.6-8.972,21.2-46.04,24.64-70.6,30.26-6.385,45.28-25.537,87.15-39.335,129.11-4.338,13.19-15.636,39.13-11.095,57.49,5.024,20.32,27.92,37.57,39.335,53.46l67.576,102.88c8.251,12.17,14.589,25.59,26.223,34.3V3157c-16.961-51.08-32.772-94.27-60.515-133.14-7.982-11.18-32.9-34.93-30.258-50.43,4.39-10.58,45.132-69.1,53.455-71.62,46.12,26.94,71.306,83.4,83.716,144.24q2.01,26.73,4.03,53.46c4.37,28.8,4.8,70.77-2.02,97.84-11.68,46.38-33.386,74.93-43.365,118.01-10.875,46.96,31.465,69.8,60.515,80.69q0.51-117.5,1.01-235.01c5.94-37.3-9.25-53.6,18.15-71.62,32.17-21.15,73.65,17.24,63.54,54.47-7.08,26.1-33.63,34.05-54.46,46.4-9.47,49.42,4.56,183.2,20.17,212.83,38.68,6.35,107.13,59.43,136.16,81.7,18.71,14.35,36.99,35.62,63.54,41.35-0.67-.67-1.34-1.34-2.01-2.02-19.28-59.07-109.98-92.13-150.28-134.15-0.94-39.89,8.16-74.56,23.19-99.85,38.45,5.73,73.45,40.54,95.82,64.55,74.94,80.42,129.72,221.87,87.75,374.21-10.23,37.14-18.5,74.84-39.34,101.88-14.01,18.17-102.65,25.34-134.14,31.26-139.8,26.31-215.2-11.62-297.534-63.54-34.008-21.45-67.134-44-90.773-75.65,14.778-33,51.636-29.76,75.644-52.45,19.333-18.27,25.21-51.25,46.4-67.58H910.8c33.409,65.89,130.12,182.42,221.89,182.57v-1.01c-9.97-13.59-29.42-21.54-43.37-31.27-23.12-16.13-46.57-35.04-65.56-55.48-22.77-24.5-44.039-55.64-60.514-85.73-6.961-12.72-13.607-36.42-25.215-44.38-36.182-24.83-102.613-22.19-162.383-22.19q-20.673-.51-41.352-1.01c-8.523,10.98-17.644,44.77-31.266,49.42-26,8.88-64.319-11.65-54.464-43.37,3.865-12.44,20.539-27.66,30.258-35.3,12.815-10.08,23.947-20.15,41.352-26.23,74.2-25.9,148.012,14.99,210.795,16.14l-35.3-68.59c-39.175-9.09-85.958-10.33-124.057-20.17-120.715-31.19-185.42-71.52-249.122-159.37-19.378-26.72-66.042-76.35-57.489-123.06q38.322-1.5,76.653-3.02,33.784-24.705,67.575-49.43c1.009,0.68,2.017,1.35,3.026,2.02q5.547,24.705,11.094,49.43c17.636,65.78,50.612,178.87,123.048,195.67q-18.153-27.225-36.309-54.46c-19.48-29.9-33.6-66.86-45.386-103.89-7.647-24.03-3.239-90.06-18.155-111.97q-17.649-12.09-35.3-24.2-22.691-11.61-45.386-23.2c-29.661-17.8-53.437-33.97-89.765-46.4-11.041,11.14-23.447,33.24-40.343,37.32-24.613,5.94-50.058-28.25-42.361-52.45,6.613-20.79,67.546-43.07,99.85-35.3,52.546,12.63,96.863,41.2,137.169,67.58,14.044,9.19,27.568,22.42,44.377,28.24-3.233-17.94-4.309-43.02-12.1-57.49q-24.708-10.59-49.42-21.19C486.144,2881.6,411.92,2832.57,359.1,2708.15c-11.048-26.02-31.581-58.16-35.3-87.75,22.282-34.44,49.145-9.75,84.722-11.1,13.048-.49,53.64-24.5,62.532-32.27l3.026,2.01c1.033,77.14,13.116,145.39,39.335,196.69,8.81,17.24,21.808,44.77,42.361,49.43v-1.01c-12.9-29.68-26.771-60.14-34.292-93.81q-2.018-23.19-4.035-46.4c-4.931-31.37,8.5-107.54-3.025-129.1l-23.2-19.17c-37.894-29.89-71.91-59.88-113.971-86.74-20.648,7.34-37.327,27.59-63.541,21.18-27.787-47.6,12.532-90.48,72.619-73.63,49.056,13.75,85.672,58.08,120.022,90.78q21.682,17.64,43.369,35.3c0.673-.34,1.345-0.67,2.018-1.01q-2.017-14.115-4.035-28.24c-7.182-12.55-23.814-21.64-35.3-30.26-29.567-22.2-61.705-44.63-87.748-70.61-65.448-65.28-92.44-155.2-91.781-283.43H335.9q27.733,12.6,55.473,25.22c23.266,4.96,45.034-18.67,63.541-22.2,2.511,47.28-15,102.31-7.06,149.29a292.1,292.1,0,0,0,21.18,70.6c4.828,10.98,8.552,25.13,19.163,30.26-13.224-43.49-19.4-122-11.094-171.47,4.315-25.7,19.922-58.42,12.1-87.75-8.391-31.48-72.25-101.98-97.833-120.03-11.545.35-29.262,14.57-39.335,10.08-31.324-12.16-17.957-44.94-4.035-64.55h45.387c13.775,3.32,21.937,16.13,31.266,24.21,21.01,18.19,40.826,41.18,57.49,63.54,13.062,17.53,22.147,35.97,42.361,46.4,0.8-45.09-40.814-73.7-60.516-101.87-23.779-34.01-46.358-75.14-55.472-120.03q-0.5-41.865-1.009-83.72c0-34.16,2.009-68.38,14.12-91.79,22.525,0.63,32.217,17.17,47.4,25.22,15.624,8.27,43.442,7.99,63.541,10.08v3.03c-19.956,40.71-37.4,80.84-48.412,132.13-4.521,21.06-3.113,55.48,8.069,67.58h1.008v-2.01q8.573-46.395,17.146-92.8c12.98-38.65,47.725-78.51,54.464-114.99,2.186-11.82-40.407-109.25-47.4-121.04-15.211-1.74-36.385-5-47.4-12.1-1.14-51.52,30.094-51.55,59.507-28.24,21.233,16.82,39.8,46.67,48.412,75.65,6.564,22.08,5.837,62.79,18.154,77.66,0.337,0.68.673,1.35,1.009,2.02,29.059-21.89,25.092-48.7,8.069-80.69-45.839-86.15-81.3-164.72-44.378-285.45,8.06-26.36,12.478-70.82,35.3-81.7,24.173-11.23,34.544,24.94,46.4,34.29,14.476,11.42,45.519,15.76,68.584,17.15-3.423,12.39-15.5,22.35-22.189,32.27-23.4,34.7-57.909,81.28-62.533,126.09-2.068,20.04-11.958,49.35,6.052,60.52,1.532-40.4,28.611-108.07,49.421-131.13,25.12-27.83,54.915-51.6,62.532-96.83,5.18-30.75-18.389-120.7-32.275-131.13-13.475-10.11-40.275-8.92-49.421-23.19-10.672-16.67,15.484-37.96,26.224-41.36,23.062-7.3,44.279,16.64,53.455,28.24,41.237,52.12,25.815,107.62,44.378,176.52h1.009c12-5.89,19.123-21.13,26.223-32.28-3.012-16.47-12.49-32.25-19.163-47.41-8.7-19.75-13.967-42.83-19.164-65.56-21.209-92.76,16.207-178.886,47.4-234.007h4.035c14.624,13.972,40.75,49.563,59.506,55.476l36.31,7.061q-1.01,2.016-2.018,4.034c-4.664,10.258-14.257,18.052-21.18,26.226-30.536,36.05-69.264,87.26-57.49,154.32h2.018c-0.041-34.54,16.2-68.73,30.257-91.78,34.937-57.3,128.83-127,188.61-161.389,22.94-13.2,46.69-32.748,72.62-42.364v6.052c-25.33,63.867-29.45,144.871-50.43,214.841q-10.59,36.81-21.18,73.64-11.61,30.75-23.2,61.52c35.4-29.39,39.07-93.77,64.55-133.14h69.59ZM3486.74,875.421c17.78,0.18,47.94,17.763,42.36,35.3-16.22,36.37-60.08,22.2-79.68,0C3454.28,892.628,3470.12,882.68,3486.74,875.421ZM3755.02,3406.14c34.4,0.75,75.11-32.64,67.58-70.6-8.34-42.05-33.39-71.06-43.37-111.97-5.71-23.38.4-50.45-4.04-77.66-12.78-78.42,16.78-154.63,48.42-195.68q16.125-18.15,32.27-36.31c21.35,12.74,47.89,58.72,60.52,81.7-22.24,43.58-51.03,80.86-73.63,126.08-5.03,10.06-19.13,33.81-11.09,52.45,1-.67,2.01-1.34,3.02-2.02q36.315-61.02,72.62-122.04c13.51-18.51,34.34-32.8,43.37-55.48,18.86-47.39-33.57-168.71-50.43-196.69-69.96-.37-100.45-81.53-38.33-98.85,31.86-8.87,54.11,44.21,60.52,65.57,13.88,46.28,30.77,85.86,47.4,129.1,9.3,24.19,16.08,55.26,34.29,70.61,11.02-8.38,41.99-46.63,35.31-67.58-11.55-36.18-45.89-66-64.55-97.84-19.4-33.09-24.93-72.65-33.29-117-11.05-58.67.54-127.63,21.18-162.4,4.3-7.23,11.75-30.89,26.23-26.22,12.87,4.15,52.62,48.44,61.52,60.52-7.52,40.09-66.14,128.49-47.4,174.49,1-.67,2.01-1.34,3.02-2.01q8.58-17.655,17.15-35.31,17.64-46.395,35.3-92.79c9.99-20.44,26.46-39.92,30.26-65.57,2.56-17.33-11.36-34.24-17.15-45.38-19.99-38.49-39.72-82.18-66.57-114.99h-54.46c-9-13.95-23.76-24.32-26.22-42.37-4.07-29.73,37.42-51.87,59.5-35.3,21.63,16.23,29.24,47.72,43.37,71.62q19.17,26.22,38.33,52.45c16.48,27.92,33.35,69.32,58.5,88.76,1.01-.67,2.01-1.35,3.02-2.02,4.87-14.89,14.8-24.93,17.15-43.37-18.55-26.44-42.55-46.28-61.53-71.62-37.02-49.42-74.16-137.1-59.5-230.98,3.38-21.65,9.2-42.44,15.13-61.53,16.07,3.65,55.69,30.47,64.55,42.37,0.07,39.99-32.11,141.88-12.11,172.48v2.01c1.35-.33,2.69-0.67,4.04-1q15.12-77.16,30.26-154.33,7.56-21.675,15.12-43.37-13.11-19.17-26.22-38.33c-20.31-29.7-45.72-62.98-71.61-87.75-23.51.9-56.46,8.56-69.59-7.06-21.66-25.76-10.09-67.34,28.24-69.6,37.83,23.12,84.53,90,112.96,126.08,13.8,17.52,27.87,46.42,61.52,40.35-0.55-45.83-43.69-71.31-71.61-93.81-37.23-29.99-64.74-72.7-84.72-120.03-7.27-17.22-27.89-72.6-18.15-96.83,29.21,0.63,60.79,7.78,68.58,30.26,12.18,35.13,4.8,108.7,30.26,125.07,0.67,0.68,1.35,1.35,2.02,2.02,0.33-1.01.67-2.02,1.01-3.02q0.495-23.2,1-46.4c-5.46-34.73-7.79-69.45-14.12-100.87q-1.5-12.105-3.02-24.21c-3.26-6.36-95.86-69.92-105.9-72.62-23.49-6.31-36.21,18.02-59.51,11.1-13.04-3.88-28.83-21.77-22.19-39.34,9.51-25.17,35.9-22.63,57.49-11.1,49.03,26.19,86.83,64.84,143.22,83.72-1.28-14.13-3.31-31.11-10.09-40.34-14.43-19.69-78.74-36.34-104.89-47.41-63.63-26.94-118.54-68.96-152.3-126.08-9.93-16.82-38.26-68.96-31.26-85.74,22.43-.31,66.61-6.35,82.7,3.03q4.545,13.6,9.08,27.23c15.16,46.27,29.59,90.02,53.45,127.09,0.68-.34,1.35-0.67,2.02-1.01-0.29-48.07-22.71-82.62-34.29-121.04-5.33-17.67-4.34-46.36-15.13-59.51-19.8-24.12-97.04-53.49-133.13-61.53-30.13-6.7-38.88,35.42-68.59,24.21-45.8-20.4-19.05-86.03,19.17-74.64q19.155,9.585,38.32,19.17c41.12,19.48,91.85,40.48,138.18,48.41v-3.02q-4.545-13.11-9.08-26.23c-12.32-17.45-83.67-25.34-107.92-35.3-49.18-20.2-102.39-77.96-128.09-123.06-7.85-13.79-24.47-41.94-19.16-60.52h72.62c18.59,39.45,22.8,99.99,57.49,126.08,0.67-.33,1.34-0.67,2.01-1-3.16-41.04-21.18-74.08-32.27-108.94-14.42-45.32-18.22-86.92-30.26-132.133-5.07-19.064-24.49-85.018-16.14-103.892h1.01c69.64,45.659,134.68,85.914,192.64,142.225q23.2,22.68,46.4,45.39c16.66,23.98,27.04,86.97,44.38,103.89,3.45-87.43-44.36-139.42-88.76-185.6v-1.009c17.29-12.945,41.06-14.255,64.55-19.164q8.07-17.65,16.14-35.3l27.23-2.017c17.48,39.329,38.19,79.509,48.41,131.129,8.64,43.58-6.32,123.67-17.14,148.27-6.52,14.81-23.66,42.84-18.16,65.56,2.82,11.62,12.7,17.45,17.15,27.24h2.01v-2.02c8.32-20.84.84-52.29,5.05-76.66,8.98-51.98,36.56-138.11,107.92-120.03,6.33,13.99,8.9,26.26,4.03,42.36-12.98,6.63-39.92,12.68-48.41,24.21-14.17,19.22-19.28,79.68-25.22,106.92q-2.01,19.665-4.03,39.34c5.43,18.07,30.22,31.46,41.35,45.39,34.77,43.5,59.83,78.88,60.52,158.35,29.47-3.41,30.87-32.77,23.2-58.5-11.22-37.57-33.48-81.83-56.49-114.98-6.56-9.47-31.47-33.46-28.24-43.38,15.57-.22,47.07-5.06,60.52-13.11,4.74-14,38.41-54.46,51.44-54.47l31.26,80.7c9.81,27.55,10.37,60.51,16.14,94.81q1.515,25.725,3.03,51.44a522.567,522.567,0,0,1-49.42,142.22q-14.13,23.2-28.24,46.4c-7.17,15.73,8.29,39.57,23.19,33.29q9.075-26.235,18.16-52.45c16.97-46.81,36.25-128.1,110.94-98.85,5.13,9.97,11.17,19.56,8.07,35.3-11.88,14.85-37.14,11.62-54.46,21.18-14.61,36.64-38.7,73.14-46.4,113.98-5.12,27.17,39.37,86.72,48.41,116,9.9,32.03,8.87,66.13,23.2,91.78,1.01,0.34,2.02.68,3.03,1.01v-2.01c5.11-11.93,4.4-38,2.01-52.45-10.43-63.12-23.87-103.36-47.4-149.29,0.34-.33.67-0.67,1.01-1q27.225-.51,54.46-1.01l53.46-37.32c15.77,17.99,11.55,55.89,16.14,84.72,17.63,110.85-24.41,180.52-68.59,241.07-15.84,21.72-49.62,42.23-51.44,75.65,0.34,0.67.68,1.35,1.01,2.02,1.01-.34,2.02-0.67,3.03-1.01,9.97-12.91,25.07-22.29,35.3-35.3,22.4-28.51,41.24-59.11,70.6-80.7,10.25-7.53,29.67-25.32,49.42-21.18,22.27,4.67,31.25,20.46,47.4,30.26v4.04q-12.09,17.145-24.2,34.29l-48.41-5.04c-21.05,5.98-94.68,102.12-98.85,127.09q8.58,52.95,17.15,105.91c8.29,51.22-5.18,95.82-11.09,138.18q3.015-2.52,6.05-5.04c7.88-21.9,23.42-36.58,28.24-64.55q-2.025-90.27-4.04-180.55h1.01c12.94,8.45,43.31,29.27,71.61,22.19,14.21-3.56,42.01-26.84,54.47-21.18q3.525,15.12,7.06,30.26c4.84,22.34-12.23,70.45-18.16,87.75q-4.53,20.175-9.08,40.34c-23.65,62.26-50.72,103.86-93.79,145.25l-66.57,53.46q-16.635,11.1-33.28,22.19c-4.04,6.21-5.78,22.26-3.03,31.27,1.01-.34,2.02-0.67,3.03-1.01q17.64-15.63,35.3-31.27c27.92-24.6,69.84-74.36,106.91-85.73,38.52-11.82,91.97-.69,99.85,28.24,6.16,22.65-7.78,39.08-22.19,42.36-24.87,5.66-32.98-19.31-49.42-17.14-33.09,4.35-122.09,78.53-137.17,103.89-16.34,27.46,2.48,121.07-6.05,160.37-9.85,45.36-33.17,73.5-45.39,111.96h1.01c65.42-46.02,81.75-145.79,81.69-257.2,28.18,4.24,43.5,31.26,73.63,37.32,30.58,6.14,46.02-25.96,68.59-9.08,16.24,40.18-9.04,81.51-25.22,113.98-47,94.29-92.91,145.4-187.6,191.64-18.46,9.02-110.36,38.95-118,48.42q1.515,26.73,3.02,53.46,23.205-17.655,46.4-35.31c36.92-24.7,81.45-49.54,129.1-59.51,56.15-11.75,100.73,18.26,89.76,75.65-51.65,25.47-32.37,9.43-69.59-17.15-41.7.61-162.16,61.91-176.5,90.78q-5.04,25.725-10.09,51.45c-8.52,34.49-12.77,72.11-25.21,104.9-16.89,44.5-49.48,69.38-68.59,109.94,73.16-20.01,112.39-136.82,127.09-206.78q6.045-23.7,12.1-47.4h4.03c5.76,6.16,48.03,50.32,51.44,51.44q30.255,0.51,60.52,1.01c12.54,2.51,22.1,8.38,31.26,14.12,11.4,36.48-30.62,70.09-45.38,93.8-43.17,69.36-92.84,114.72-171.46,149.29-22.35,9.82-45.46,22.94-71.61,29.25-27.66,6.66-56.4,6.39-86.74,11.09-17.97,2.78-44.95-4.36-56.48,2.02-8.03,28.29-27.29,52.04-37.32,81.7q38.82-11.595,77.66-23.2h57.49c71.1-.01,116.48,4.67,141.2,49.43,15.93,28.84-9.22,72.95-45.39,59.51-18.71-6.96-17.39-33.46-26.22-48.42-61.66,2.49-159.45-9.39-198.69,17.15-20.32,13.74-31.2,39.45-43.37,61.53-15.97,28.95-38.51,60.47-63.54,80.69-16.62,13.42-98.79,69.68-102.88,83.72,71.75-24.98,124.97-52.96,167.43-105.91q33.78-42.87,67.57-85.74c1.01,0.67,2.02,1.35,3.03,2.02,6.46,23.85,21.74,72.57,43.37,81.7,13.06,5.51,58.2,9.66,65.56,18.16-2.99,11.3-.7,24.02-5.05,33.28-9.2,19.62-59.63,46.81-78.67,60.52-72.97,52.57-169.07,93.64-303.58,68.59-45.19-8.41-98.15-8.96-129.1-32.28-15.16-11.42-20.79-37.42-28.24-56.48-19.29-49.37-39.89-127.53-27.23-203.75,19.01-114.52,62.9-203.82,146.24-256.2,14.99-9.42,31.43-22.41,50.43-27.23,0.67,1.01,1.35,2.01,2.02,3.02,7.24,14.46,27.9,79.69,19.16,101.88-6.25,11.08-24.48,18.37-35.3,25.21-34.03,21.52-104.8,69.42-112.96,112.97,30.48-13.36,48.04-35.37,72.62-53.46q35.8-24.195,71.61-48.41c16.63-10.5,55.64-22.61,60.51-43.37q4.035-66.57,8.07-133.15V3214.5c-9.24-24.24-45.16-33.68-52.44-64.56-6.71-28.43,15.11-45.2,32.27-50.43,50.92-15.53,54.47,34.41,54.46,79.68C3761.06,3254.51,3759.84,3335.37,3755.02,3406.14ZM3151.89,967.209q3.015,1.008,6.05,2.017c7.25,31.754,17.92,59.944,5.04,97.844-12.55,36.92-48.29,57.78-70.6,85.73-51.1,64.02-104.94,124.75-172.47,172.48-1.34-.33-2.69-0.67-4.03-1.01q-7.575-15.12-15.13-30.26c-6.81-30.14,62.85-88.24,77.66-106.91,44.41-55.99,91.9-107.63,134.14-166.43Q3132.215,993.94,3151.89,967.209ZM966.272,1103.38c-41.808,36.44-71.3,63.58-70.6,143.23q2.016-1.02,4.034-2.02c41.026-18.26,77.542-82.51,70.6-141.21h-4.034ZM3837.73,1117.5c-2.96,10.34-2.14,30.01,0,42.36,9.08,52.46,27.51,82.59,72.62,98.85C3909.84,1206.74,3875.2,1128.64,3837.73,1117.5Zm-678.78,3.02h3.02c0.34,0.68.67,1.35,1.01,2.02v23.2c0.08,17.98-2.14,32.22-8.07,44.38-28.67,58.84-80.82,93.51-120.02,141.21q-54.465,59.505-108.93,119.03c-0.67-.34-1.34-0.68-2.02-1.01-3.81-17.41-23.77-47.28-13.11-71.62,9.94-22.68,50.92-42.32,67.58-61.53q63.54-71.6,127.08-143.23Q3132.22,1146.75,3158.95,1120.52Zm-1651.07,42.37c16.68,8.73,33.44,75.53,42.37,96.83,29.5,70.38,78.65,108.05,86.73,202.74h-1c-44.98-28.46-63.16-51.75-93.8-93.81-27.5-37.73-80.9-84.38-58.5-157.35C1489.25,1193.14,1498.79,1177.55,1507.88,1162.89Zm1643,101.87c1.34,0.34,2.69.68,4.03,1.01,0.64,13.33,6.3,28.26,2.02,42.37-21.53,70.95-92.85,139.29-145.24,181.55-17.99,14.52-54.69,60.12-74.63,66.57-0.34-.67-0.68-1.34-1.01-2.01,5.65-22.42-4.73-52.83,3.02-73.63,9.94-26.67,42.41-49.41,61.53-68.59,23.84-23.94,45.34-50.1,66.56-76.66q14.625-14.115,29.25-28.24,15.63-16.14,31.27-32.28Q3139.275,1269.81,3150.88,1264.76Zm-267.28,37.32c1.35,0.68,2.69,1.35,4.04,2.02,0.19,18.73,2.71,43.05-2.02,58.5-16.74,54.67-88.11,106.29-122.04,148.28-15.54,19.23-36.97,44.89-58.5,57.49-10.11-70.29,21.44-75.29,51.44-112.97q45.375-59.505,90.77-119.02Zm-1416.06,45.39c20.73,3.17,53.09,48.21,69.59,61.53,44.17,35.65,113.52,63.88,99.85,153.32q-1.005,19.155-2.01,38.33c-1.01-.34-2.02-0.68-3.03-1.01q-21.18-15.63-42.36-31.27c-18.85-16.65-31.98-39.35-47.4-59.51-23.82-31.14-62.56-60.8-74.64-101.88v-59.51ZM2895.7,1409h4.04v5.04c-5.04,20.06-2.64,38.49-10.09,54.47-12.31,26.44-38.75,46.83-58.5,66.57-40.15,40.15-81.28,83.98-127.08,118.02h-1.01c-0.08-18.08-3.92-39.14,2.02-53.46,9.73-23.48,42.21-45.35,61.52-60.52,31.72-24.93,60.03-57.63,86.74-87.76C2865.43,1437.73,2887.6,1425.53,2895.7,1409Zm234,4.04c3.66,0.64,3.05.4,5.04,2.01-4.16,18.87,2.98,46.61-5.04,65.57-18.47,43.62-54.86,67.93-83.72,100.86a873.512,873.512,0,0,1-128.09,119.02c-2.72-29.48-9.23-75.86,2.02-99.85,10.01-21.36,54.1-48.76,73.63-63.55Q3061.61,1475.075,3129.7,1413.04ZM773.631,1429.17q-12.1,9.09-24.206,18.16c-27.55,22-41.96,57.45-51.438,97.84-2.721,11.59-7.753,44.93,0,55.48,50.505-33.92,77.176-89.32,78.67-171.48h-3.026ZM4034.4,1448.34c-1.35,98.55,17.05,117.43,66.57,163.4,1.34-.34,2.69-0.67,4.03-1.01q-0.495-32.775-1.01-65.56C4097.47,1511.69,4061.88,1460.13,4034.4,1448.34Zm-2361.11,15.13c11.27,3.65,32.43,40.71,40.35,51.44,31.92,43.27,67.31,83.96,98.84,128.1,8.62,12.07,32.54,32.19,33.28,46.4h-1.01c-74.09-6.38-119.44-69.18-150.28-123.06-9.6-16.77-23.65-34.16-28.24-55.47C1662.43,1493.21,1669.54,1476.71,1673.29,1463.47Zm-213.82,22.19h3.03c44.32,33.47,78.86,81.92,118,121.04,14.57,14.55,41.96,30.16,48.42,51.44,4.49,14.8,9.39,81.52,6.05,93.8-34.05,2.4-54.84-30.54-75.65-46.39-38.61-29.43-81.24-69.3-95.81-122.05C1455.49,1554.49,1459.31,1519.72,1459.47,1485.66Zm1447.33,14.12c9.68,15.27.04,62.73-8.07,72.62-36.05,43.98-81.89,96.62-126.07,132.14-19.72,15.84-38.43,43.19-63.54,52.45v-2.02c-4.27-8.52-10.9-39.44-6.06-52.45,7.08-19.02,43.03-46.29,57.49-61.53C2806.12,1593,2854.44,1540.47,2906.8,1499.78Zm206.76,56.48c12.7,17.15-17.77,74.97-25.21,86.75q-16.14,19.155-32.28,38.33c-42.64,54.53-95.97,106.74-152.3,147.26h-1.01c-1.29-23.58-4.59-57.86,4.04-78.67,10.89-26.28,44.24-45.81,65.56-62.54Q3042.95,1621.84,3113.56,1556.26Zm-447.81,3.03c9.15,7.1-2.07,56.65-5.05,63.55-12.28,28.43-90.63,111.23-119.01,120.03C2558.22,1661.1,2620.94,1614.06,2665.75,1559.29Zm-999.52,7.06c8.5,3.55,12.76,13.39,18.16,20.17q36.3,41.865,72.62,83.72c26.27,21.24,64.49,35.46,83.71,63.55,14.42,21.07,10.17,44.35-9.08,56.48-61.85-7.72-89.12-59.47-122.04-96.83-16.86-19.14-38.09-41.36-43.37-68.59v-58.5Zm1224.43,52.45c13.33,18.54-17.02,70.42-23.2,79.69-28.2,42.33-117.33,140.26-175.49,147.26l-1.01-1.01c1.23-40.46,31.89-65.69,55.47-84.73q34.29-35.8,68.59-71.61C2836.39,1661.93,2866.09,1642.21,2890.66,1618.8Zm-210.79,38.33c0.67,0.34,1.34.67,2.01,1.01-4.37,39.72-82.72,112.76-109.93,137.18-12.43,11.15-26.58,31.81-44.38,36.31V1816.5c12-38.73,94.86-134.57,127.08-153.32Q2667.265,1660.165,2679.87,1657.13Zm433.69,5.04c10.26,11.36-14.78,75.08-19.16,83.72-29.34,57.81-74.98,110.23-119.02,154.33-13.27,13.29-30.19,39.72-54.46,40.34-13.63-6.47-21.63-16.92-28.24-30.26,27.52-57.3,75.76-87.01,112.96-133.14C3038.92,1735.9,3075.49,1698.63,3113.56,1662.17Zm-1634.92,20.18c48.85,20.07,137.31,80.98,163.39,122.04,14.64,23.06,21.82,63.36,24.2,96.84h-3.02c-80.48-33.71-140.32-87.82-172.47-170.47C1485.66,1717.72,1477.98,1697.06,1478.64,1682.35Zm179.52,15.13c21.51,3.16,50.87,42.37,65.56,56.48,36.98,35.51,136.01,61.83,124.06,138.19-60.53-4.45-67.84-21.37-105.9-48.42C1692.08,1808.34,1657.41,1785.17,1658.16,1697.48Zm1232.5,25.21c15.28,14.8-9.19,63.72-15.13,72.63-22.73,34.07-109.52,128.98-166.41,119.02-10.79-41.13,19.68-52.97,40.34-68.59Q2820.05,1784.22,2890.66,1722.69Zm-219.87,9.08h5.04c-6.59,61.47-62.94,96.59-102.87,126.08-10.99,8.12-35.73,33.78-51.44,28.25v-1.01c5.62-26.66,93.25-111.52,115.99-129.11Q2654.145,1743.875,2670.79,1731.77Zm-784.68,4.04c42.98,19.57,70.49,72.79,74.63,131.12h-1.01c-0.67-.67-1.34-1.34-2.01-2.02C1930.64,1852.03,1873.42,1782.36,1886.11,1735.81ZM599.145,1804.39c-12.823,35.47-31.1,65.97-39.335,104.9-4.036,19.08-2.26,56.42,8.069,65.57,32.669-21.86,55.783-74.2,43.369-131.13C608.136,1829.46,608.282,1809.96,599.145,1804.39Zm1277.885,3.03c26,9.46,66.01,73.47,77.66,100.87,3.59,8.43,17.12,34.21,12.1,42.36-40.47-15.61-75.45-46.23-86.74-90.78Q1878.55,1833.65,1877.03,1807.42Zm802.84,7.06c6.29,12.03-14.72,42.81-21.18,51.44-21.74,29.02-81.48,90.42-125.07,93.81-16.09-25.52,3.76-35.68,18.16-54.47,22.97-29.98,57.83-63.5,92.79-80.69Q2662.21,1819.53,2679.87,1814.48Zm1518.93,17.15c-27.05,44.29-5.22,128.83,26.23,152.31,6.67-.73,8.97-0.37,14.12-4.04C4256.77,1921.2,4230.24,1855.45,4198.8,1831.63Zm-1326.29,7.06h4.03v2.02c8,19.49-.86,49.98-7.06,63.54-17.55,38.37-94.72,112.23-144.23,116q-5.55-27.24-11.09-54.47c9.67-11.78,25.58-18.55,38.32-27.23,28.71-19.56,52.93-45.18,79.68-66.58C2845.38,1861.41,2862.31,1852.18,2872.51,1838.69ZM1685.4,1849.78c31.33,7.04,134.72,64.25,146.24,86.75,9.01,17.59,10.6,51.21,12.11,73.63-0.34.34-.68,0.67-1.01,1.01-52.22,2.56-130.79-66.18-146.25-103.89C1690.97,1893.82,1681.69,1866.04,1685.4,1849.78Zm-147.26,9.08c20.55,1.7,37.28,20.68,51.44,30.26,14.97,10.13,75.86,50.9,81.7,63.55,6.72,14.56,6.05,35.76,6.05,55.47q-0.51,19.17-1.01,38.33C1620.62,2015.99,1551.58,1929.36,1538.14,1858.86Zm1141.73,22.19c11.22,15.5-3.43,52.97-9.08,61.53-14.11,21.37-80.72,77.31-105.9,85.74-9.78,3.27-23.91-4.48-30.26-7.06v-3.03l26.22-37.32C2595.66,1944.2,2638.23,1910.71,2679.87,1881.05Zm-822,13.11c27.78,2.59,80.29,71.42,92.79,93.81,4.32,7.75,16.46,33.91,8.06,45.39C1922.53,2020.61,1843.21,1949.58,1857.87,1894.16Zm1029.77,45.39q-1.02,14.625-2.02,29.26c-12.41,70.37-49.98,100.59-100.86,131.12-13.11,7.86-40.22,25.12-60.52,20.17-0.11-18.15-.48-35.55,5.05-48.41,9.25-21.56,36.43-34.16,54.46-47.41Q2835.7,1981.92,2887.64,1939.55Zm-203.74,20.18q3.03,0.495,6.05,1.01c1.14,12.96,9.59,31.43,4.04,46.39-10.1,27.19-72.04,64.09-97.84,79.69-9.29,5.61-28.92,22.98-39.33,19.16C2560.97,2030.97,2636.84,1994.12,2683.9,1959.73Zm-985.39,8.07c27.26,1.7,46.04,24.59,64.55,36.31,44.38,28.09,70.9,54.35,90.77,107.92-0.34.68-.67,1.35-1.01,2.02C1782.44,2099.12,1697.44,2052.6,1698.51,1967.8Zm163.39,33.28c57.71,8.68,80.07,65.79,100.86,111.96-0.67.68-1.35,1.35-2.02,2.02C1908.52,2095.5,1875.26,2058.71,1861.9,2001.08Zm1035.82,39.34c16.72,13.04-7.21,61.38-11.09,66.57-26.23,35.08-58.94,63.58-99.85,83.72q-22.7,9.075-45.39,18.16c-14.01-8.08-29.42-32.12-15.13-55.48Q2811.985,2096.915,2897.72,2040.42Zm-336.87,129.11c4.64-40.74,99.43-107.54,133.14-127.09,1,0.33,2.01.67,3.02,1.01-5.47,16.56-3.8,39.63-13.11,52.45C2662.07,2125.93,2609.83,2170.61,2560.85,2169.53Zm-689.87,47.4c-56.44-1.46-133.1-47.44-153.31-85.73-6.19-11.74-6.15-38.23-5.04-53.46h7.06C1780.98,2102.24,1863.23,2140.46,1870.98,2216.93Zm14.12-126.08c24.76,11.25,91.38,56.51,91.78,83.72h-1.01C1940.25,2171.65,1870.38,2141.21,1885.1,2090.85Zm806.87,23.2c33.05,40.55-45.48,95.17-72.62,104.9-10.66,3.83-34.62,10.31-44.38,6.05C2600.61,2172.42,2652.08,2151.9,2691.97,2114.05Zm210.79,24.21c2.02,0.34,4.04.67,6.06,1.01v37.32c-10.45,41.76-81.52,79.43-123.05,93.8-14.97,5.19-49.81,25.43-65.56,19.17l-5.04-45.39c27-21.42,63.16-31.55,93.8-49.43q31.755-20.67,63.54-41.35Q2887.63,2145.83,2902.76,2138.26Zm-1020.69,29.25c56.48-.95,107.33,40.21,125.07,81.7C1948.99,2250.27,1886.55,2217.26,1882.07,2167.51Zm-158.35,22.19c40.69,5.53,77.2,27.36,112.96,40.35,19.28,7,39.76,8.05,54.47,19.16,6.81,5.14,21.39,32.78,13.11,44.38C1831.11,2273.27,1733.45,2271.04,1723.72,2189.7Zm960.18,11.1q2.52,0.495,5.04,1.01c-3.12,11.61,3.09,28.15-3.02,38.32-16.78,27.92-55.68,36.35-91.78,45.39q-15.135,2.025-30.26,4.04c-1.01-.34-2.02-0.67-3.03-1.01,3.01-9.56,13.46-14.84,19.17-22.19ZM572.922,2217.94c-19.239,43.33-23.473,159.8,12.1,188.62l3.026-2.01q10.588-15.135,21.18-30.26C626.429,2330.14,599.115,2231.65,572.922,2217.94Zm2343.958,2.02c1.69,0.34,3.37.67,5.05,1.01-1.85,15.14.11,34.87-5.05,46.4-17.72,39.62-143.06,109.37-207.76,98.85-3.1-11.95,1.91-32.08,5.04-42.37l42.36-24.21c39.48-15.55,75.63-32.87,108.93-53.45Q2891.16,2233.08,2916.88,2219.96Zm1321.26,13.11q-12.105,14.13-24.21,28.25c-22.4,37.63-48.85,133.2,1.01,160.37,38.35-16.44,26.55-133.82,26.22-188.62h-3.02Zm-2314.72,23.2c45.11,12.51,105.34,16.05,114.98,63.55h-13.11c-49.44-13.58-77.91-24.89-102.87-61.53C1922.75,2257.62,1923.09,2256.94,1923.42,2256.27Zm-171.46,20.18q26.22,4.035,52.45,8.06c60.79,17.69,112.83,39.59,146.25,84.73v3.03h-66.57c-69.09-10.66-88.75-20.47-119.01-69.6C1760.3,2294.92,1753.17,2287.47,1751.96,2276.45Zm919.84,7.06c11.17,2.72,21.67,20.51,16.13,32.27-33.16,13.16-83,43.91-135.15,30.26v-1.01c0.34-.67.68-1.34,1.01-2.01,19.77-10.54,37.81-25.75,59.51-35.31Q2642.55,2295.62,2671.8,2283.51Zm231.97,26.22h3.03c-0.04,11.01-1.68,39.93-8.07,46.4l-53.46,24.21c-41.54,18.17-87.55,47.3-144.22,47.4-0.34-.67-0.68-1.34-1.01-2.01,5.03-11.7,7.08-28.61,17.14-35.31q26.73-7.05,53.46-14.12C2813.61,2361.31,2872.69,2337.33,2903.77,2309.73Zm-953.11,16.14c43.01-1.12,111.59,15.38,116.99,46.4-57.4,1.4-69.27-5.93-100.86-31.27C1960.95,2336.31,1951.97,2331.95,1950.66,2325.87Zm647.51,36.31q39.33,0.51,78.67,1.01-0.51,12.105-1.01,24.21c-24,7-97.33,23.87-125.06,14.12-0.28-9.34-.93-22.03,2.01-28.24Zm-604.14,26.23c47.44-1,98.77,3.74,114.97,33.28-0.33.67-.67,1.35-1,2.02-45.89.87-104.78,5.5-126.08-21.18C1983.61,2393.8,1987.43,2392.14,1994.03,2388.41Zm-167.43,6.05c51.07,0.25,84.23,15.24,121.03,27.23v4.04c-21.91-2.52-59.07,13.23-75.64,23.2q-11.61,7.56-23.2,15.13-11.6-18.165-23.2-36.32l-5.04-31.26c0.33-.34.67-0.68,1.01-1.01Q1824.08,2394.96,1826.6,2394.46Zm1046.92,2.02q7.05,0.495,14.12,1c0.33,0.68.67,1.35,1,2.02-5.93,69.58-102.36,77.38-164.4,88.76q-29.235,1.02-58.49,2.02v-6.05c23.09-48.62,35.81-27.01,84.72-43.37l84.72-35.31Q2854.345,2401.02,2873.52,2396.48Zm-293.5,20.17c42.44-.81,64.35,2.17,80.68,27.23-17.78,33.44-113.03,15.81-129.1-7.06C2543.72,2420.93,2559.15,2424.81,2580.02,2416.65Zm-603.14,21.18,45.39,5.04h30.25c48.1,7.97,94.72,3.79,131.12,21.19,30.88,14.75,53.59,43.67,85.73,58.5q46.4,13.62,92.79,27.23c24.6,11.47,41.92,38.1,62.53,54.47,31.82,25.27,67.2,43.3,94.81,72.62-0.34,1.01-.67,2.02-1.01,3.03-18.73-5.22-35.65-5.94-50.43-14.12-45.44-25.16-74.46-68.53-121.03-91.79-10.09,4.86-18.85,10.96-32.27,12.1-47.55-23.43-84.91-61.02-135.15-82.71-48.07-20.74-107.48-21.63-172.47-24.2-20.49-.82-37.48,11.08-56.48,13.11v-1.01Zm527.49,28.24c48.28-.94,92.19,5.49,125.07,22.19-1.01,1.35-2.02,2.69-3.03,4.04q-12.6,9.585-25.21,19.16C2577.16,2507.76,2510.47,2484.28,2504.37,2466.07Zm179.53,451.88c-69.34,1.15-85.4-49.4-141.2-57.49,0.33,1.01.67,2.02,1.01,3.02-3.58,29.08,35.14,33.86,54.46,44.38,52.86,28.79,117.4,48.04,134.14,109.95,2.32,8.56,9.75,23.12,7.06,32.28-34.59-2.61-68.61-3.42-94.8-14.13-22.19-9.07-35.94-30-58.5-39.33-9.36-3.87-27.33.44-34.29-3.03-25.6,10.62-41.44,60.48-65.56,78.68h-3.03c-15.92-17.32-51.13-58.34-77.66-61.53,9.15,43.86,47.34,67.13,56.48,115.99,5.86,31.34-13.22,59.01-42.36,54.47-77.81-12.11-52.54-199.18-89.76-259.22-7.35-1.93-19.65-2.74-28.25-1.01-5.81,21.8,13.21,33.91,17.15,49.42,6.94,27.31-38.45,65.7-24.21,102.88,18.8,49.05,60.57,76.94,84.73,120.03,17.8,31.77,19.17,84.61,19.16,133.15,0,18.74-1.19,35.39-6.05,50.43-8.94,27.65-73.4,43.58-95.82,62.54-14.6,12.35-30.06,24.7-41.35,40.34-13.84,19.17-24.19,43.63-41.35,59.51h-2.02q-9.585-10.08-19.16-20.17c-17.61,1.24-33.68,4.93-54.47,5.04,0.34-1,.68-2.01,1.01-3.02,28.57-10.8,63.91-31.9,81.7-54.47,16.36-20.76,34.86-44.2,56.48-59.51,20.68-14.65,71.39-43.3,79.68-66.57,5.12-14.39,3.78-44.37,1.01-59.51-4.61-25.11-2.89-40.9-11.1-60.52-16.05-38.37-51.71-63.77-67.57-101.88-8.64-20.73,1.86-57.78-8.07-76.65-8.98-17.07-40.96-24.35-56.48-35.31-28.83-20.34-56.96-52.42-75.65-82.71-19.42-31.47-30.16-76.36-38.32-109.94-6.73-27.67-2.57-63.25-20.18-79.68h-1q-9.09,31.26-18.16,62.53c-32.72-4.22-72.98-50.98-88.76-74.64q-10.08-17.145-20.17-34.29-6.555,17.64-13.11,35.3c-16.55,28.25-99.58,105.29-148.26,68.59-15.85-11.95-28.26-34.72-39.34-51.44-1.01.67-2.01,1.34-3.02,2.02-7.98,25.21-29.52,43.65-47.41,59.51-0.67-.34-1.34-0.68-2.01-1.01v-1.01c5.25-32.25,23.24-59.59,47.4-73.63v-3.03c-27.16-19.76-59.68-53.34-73.63-85.74,19.59-43.28,45.53-73.54,81.7-99.85,8.59-6.25,32.84-25.06,43.37-18.16-22.38,44.16-70.15,63.66-93.8,104.9h3.03c33.41-13.76,64.7-20,84.72-46.4,29.9-39.43,56.52-97.41,111.95-109.94,0.34,0.67.67,1.35,1.01,2.02q-18.15,33.285-36.31,66.57h1.01q15.12-3.525,30.26-7.06c21.58-8.3,39.35-20.36,64.55-26.23,99.99-23.29,201.89,11.02,263.24,47.41q28.74,19.17,57.49,38.33c30.86,17.42,71.66,25.89,101.87,45.39q33.78,30.765,67.57,61.53c31.46,21.24,78.56-1.18,121.03,9.07,26.07,6.3,47.78,48,53.46,74.65q-12.615,10.59-25.22,21.18c6.72,17.6,62.46,27.59,68.59,62.53-37.46-6.94-61.22-32.17-104.9-37.32C2577.81,2869.58,2677.36,2874.1,2683.9,2917.95Zm156.33-431.7q18.66,0.495,37.32,1.01a98.6,98.6,0,0,1-61.52,51.44c-28.49,8.13-146.85,3.45-168.44-5.05l-20.17-17.14c0.34-.68.67-1.35,1.01-2.02,65.16,0.92,121.35-10.92,173.48-23.2Zm-339.89,19.16c17.83,1.18,36.03,8.99,48.41,14.12-0.75,4.5-1.26,4.24-3.03,7.06-39.48,5.65-51.55,13.14-82.7-9.08,1.01-1.34,2.02-2.69,3.03-4.03Q2483.18,2509.445,2500.34,2505.41Zm76.65,28.24q25.71,8.07,51.44,16.14,45.375,7.065,90.77,14.12l70.6,8.07c-1.34,1.68-2.69,3.36-4.03,5.05-13.09,5.19-25.86,12.2-41.35,16.13-67,17-142.54-22.64-187.6-40.34v-3.03Q2566.9,2541.72,2576.99,2533.65Zm-500.26,56.49q-0.51-14.625-1.01-29.25c-7.57-9.42-80.07-33.49-104.89-26.23-35.28,10.32-61.77,55.38-74.64,88.76q-5.55,16.65-11.09,33.29c-15.46,24.68-45.18,36.57-69.6,52.45v40.35h1.01c65.71-37.48,96.06-116.26,136.16-179.55C2004.52,2558.95,2033.8,2588.63,2076.73,2590.14Zm341.91-53.46c44.75,11.61,55.72,48.88,90.77,68.59,21.88,12.3,58.86,23.91,65.56,50.43-86.61-4.67-112.93-67.6-158.35-115.99C2417.3,2538.7,2417.97,2537.69,2418.64,2536.68Zm106.91,36.31c42.84,10.45,143.12,23.22,164.4,54.47q-1,2.52-2.02,5.04-18.15,5.04-36.3,10.09c-60.41,11.77-107.85-38.19-132.13-67.58V2574C2521.52,2573.66,2523.53,2573.33,2525.55,2572.99Zm-641.46,8.07q-39.84,26.22-79.68,52.45,0.51-24.705,1.01-49.42l-3.03,2.01q-11.6,17.145-23.19,34.3c-14.85,23.46-28.67,50.87-48.42,69.6,0.68,0.67,1.35,1.34,2.02,2.01,70.33-12.53,91.37-16.91,131.12-63.54C1868.43,2623.17,1893.51,2587.44,1884.09,2581.06Zm-98.84,59.51,8.07,3.03q5.04,9.57,10.08,19.16c-0.33,1.01-.67,2.02-1.01,3.03-10.71.46-31.15,6.03-39.33,0C1768.95,2655.45,1777.37,2648.77,1785.25,2640.57ZM628.394,2659.74c-4.952,8.74-3.39,15.9-6.051,30.26-12.852,69.3,13.3,113.89,46.4,147.26,5.847,5.89,9.868,13.7,19.163,16.14,13.675-71.21,4.118-119.33-32.275-166.43C648.293,2677.48,640.14,2664.49,628.394,2659.74ZM4182.67,2678.9c-11.43,8.85-24.75,14.6-34.3,25.22-32.89,36.58-41.87,93-35.3,160.37h4.04c50.29-16.27,64.82-64.99,68.58-125.07C4186.65,2724.03,4190.91,2689.7,4182.67,2678.9Zm-2482.14,9.08q3.015,0.495,6.05,1.01-23.7,63.03-47.41,126.08c-1.68-.34-3.36-0.67-5.04-1.01q-4.545-14.625-9.08-29.25C1635.84,2730.81,1675.18,2709.1,1700.53,2687.98Zm669.7,42.36c19.39,44.3,47.76,69.43,85.73,94.82,8.91,5.95,16.95,15.85,29.25,18.15-19.03-47.17-53.41-72.16-92.79-98.85C2385.44,2739.73,2380,2732.34,2370.23,2730.34Zm-176.5,24.21c1.27,66.21,90.3,117.43,133.13,150.29,22.56,17.31,41.11,41.37,67.58,54.47-9.85-57.94-97.95-90.84-131.12-132.14C2243.46,2802.45,2222.63,2769.68,2193.73,2754.55Zm168.43,59.51c2.99,23.38,31.96,54.72,52.45,60.52v-1.01C2403.26,2851.12,2386.29,2823.1,2362.16,2814.06Zm-236.01,1.01c-1.71,76.57,61.46,109.41,96.82,153.31,12.67,15.72,38.87,49.17,61.53,49.43q-1.515-21.18-3.03-42.36c-6.82-13.65-30.23-23.31-43.37-31.27-23.21-14.07-48-32.51-63.54-54.47C2159.41,2868.3,2150.3,2826.71,2126.15,2815.07Zm45.39,23.2c-5.09,30.82,52.65,80.44,77.66,87.75C2243.22,2899.26,2194.79,2848.84,2171.54,2838.27Zm468.99,239.05c66.1,2.98,155.76,17.62,201.72,43.37,65.33,36.61,114.79,95.55,171.46,141.21,25.26,20.36,47.21,45.28,68.58,69.6,22.26,25.33,51.55,47.49,68.59,77.67-55.16-10.41-107.38-47.97-151.29-74.64-30.97-18.81-63.19-37.08-91.78-58.51l-87.75-76.65q-26.73-20.685-53.46-41.36c-0.67.34-1.34,0.67-2.01,1.01v1.01c7.18,41.96,38.13,67.69,65.56,89.77a1936.686,1936.686,0,0,0,231.97,160.38c34.93,20.62,103.83,47.77,117,86.74-66.17-7.15-118.64-44.49-164.4-74.64-100.68-66.33-198.02-134.38-272.32-226.95-24.94-31.06-53.66-59.26-78.67-90.78C2656.66,3095.64,2644.84,3088.7,2640.53,3077.32Zm139.19,412.54h-50.43c-13.55-4.66-32.88-60.6-41.36-75.65-24.07-42.75-47.31-87.59-73.62-128.1-11.78-18.13-21.58-42.4-38.33-55.47-7-.34-17.3-0.97-21.18,2.01,19.62,52.37,39,106.66,67.58,151.3,18.08,28.24,55.77,72.76,60.51,109.94q-12.6,2.535-25.21,5.05c-22.6-34.63-39.63-130.18-84.72-136.17,3.72,45.35,41.02,92.49,33.28,136.17-35.18-.95-41.74-25.55-54.46-51.44q-25.215-50.94-50.43-101.88-11.1-20.175-22.19-40.34v2.01q1.005,19.17,2.01,38.33c5.56,32.63,7.2,58.09,16.14,85.74q9.075,27.735,18.16,55.47c-22.43-13.66-55.29-48.99-82.71-52.45-12.93-1.63-45.53,18.91-55.47,24.21q-58.5,32.775-117,65.56c2.59-10.25,10.56-15.92,16.14-23.19,38.54-50.22,108.75-60.39,144.23-104.91-0.22-53.1,1.67-104.99,6.05-148.27,0.67-.33,1.34-0.67,2.02-1.01,0.67,0.34,1.34.68,2.01,1.01l42.37,52.45c0.67-.33,1.34-0.67,2.01-1.01,0.02-47.01-.15-102.13,8.07-141.21,9.66,6.49,14.55,20.34,26.22,24.21,9.11-42.26,31.51-106.9,81.7-97.84l54.46,57.49q31.77,31.275,63.55,62.54c49.46,49.49,99.79,99.99,155.32,143.23q44.88,35.3,89.76,70.61c33.29,20.36,66.29,37.51,89.77,67.58-0.68.67-1.35,1.34-2.02,2.01-25.14,4.69-68.35,5.9-94.81,1.01-17.85-33-45.07-73.85-73.62-96.83q-20.685-17.145-41.36-34.29c-37.85-37.35-74.56-75.07-115.98-108.94-24.49-20.02-54.11-70.01-84.73-79.68v6.05c34.07,109.94,125.48,147.36,188.61,225.94q20.67,27.225,41.35,54.47l16.14,31.26c-0.67,1.01-1.35,2.02-2.02,3.03q-23.7-.51-47.4-1.01c-12.76-7-20.75-26.67-29.25-38.33-28.23-38.71-91.28-144.54-138.18-155.33v3.03c16.58,58.04,56.84,96.28,87.75,141.21C2757.69,3452.86,2777.43,3471.81,2779.72,3489.86ZM784.726,3135.82c-1.626,79.71,16.218,117.83,51.438,158.36,6.156,7.09,39.929,32.73,52.447,24.21q-0.505-29.25-1.009-58.5C878.757,3218.93,820.891,3145.59,784.726,3135.82Zm3231.524,13.11c-32.16,41.97-106.23,80.68-97.84,158.36q1.02,18.165,2.02,36.31c53.67-25.06,83.19-64.62,97.83-129.1,3.39-14.9,9.33-53.19-1-65.57h-1.01Zm-671.72,308.65c54.65-1.68,62.56,82.91,14.12,93.81-31.31,7.04-60.07-31.03-51.44-61.53C3312.36,3471.64,3328.81,3465.62,3344.53,3457.58Zm-1887.07,4.04c50.03-1.14,54.05,59.41,22.18,82.71-35.41,25.89-54.33-17.11-70.6-35.31,6.55-13.4,17.35-38.63,31.27-44.38Q1448.875,3463.14,1457.46,3461.62Zm240.04,48.41q195.645,1.02,391.33,2.02c7.43,28.44-1.62,61.65,18.16,76.66l25.21,5.04c18.35,4.49,35.24,10.78,48.41,20.17,15.26-2.71,44.66-29.55,59.51-38.32,43.28-25.57,109.03-55.73,164.4-65.57,53.44-9.5,68.13,38.31,121.03,29.25,22.85-3.91,28.76-24.27,50.43-28.24h578.93q-9.585,19.665-19.16,39.34c-14.46,32.92-37.68,97-29.25,148.27,9.13,55.55,21.78,98.65,39.33,146.26,10.31,27.93,29.06,59.07,32.28,91.79H1691.45q14.115-27.24,28.24-54.47c14.6-31.19,28.33-66.22,37.32-99.86,25.1-93.93-58.58-232.18-108.93-269.31v-1.01c0.33-.34.67-0.67,1.01-1.01Q1673.285,3510.545,1697.5,3510.03Zm733.24,16.14q-21.165,22.185-42.36,44.38c-14.8,22.25-17.68,54.71-29.25,79.69-9.61,20.76-27.45,42.14-35.3,64.55-66.89.32-151.5,4.36-210.79-7.06-51.64-9.95-100.07-17.76-150.28-26.23-57.35-9.67-88.34,24.86-93.8,68.59,16.4-3.96,27.52-16.58,45.39-20.17,16.42-3.3,34.36,5.43,46.39,9.08q55.98,13.62,111.96,27.23c81.42,23.59,237.84,27.73,325.77,8.07,61.18-13.68,146.26-36.25,146.25-106.92-0.01-17.22-.93-30.78-8.07-41.35-29.84-44.14-114.38,15.2-139.19,22.19-0.34-.67-0.67-1.35-1.01-2.02,4.51-11.43,7.63-22.85,14.12-32.28,14.21-20.65,38.71-30.84,28.24-65.56C2436.34,3540.16,2435.87,3531.57,2430.74,3526.17Zm462.95,15.13c-20.04,12.04-39.79,14.77-55.48,30.26-36.05,35.62-48.53,97.9-78.67,142.22-53.01,4.3-139.74-8.95-181.54,9.08-52.19,22.51-73.98,78.2-115.99,110.95-22.05,17.2-56.55,26.27-74.63,47.41v1.01c14.35-.08,42.77,3.53,61.52-1.01,38.15-9.25,75.18-39.68,96.82-66.57,11.69-14.52,46-56.69,62.54-62.54,17.02-6.02,42.31,2.49,55.47,6.05,26.83,7.26,66.39,12.46,98.84,7.06q8.58-.495,17.15-1.01c12.26-6.53,25.15-25.35,32.27-37.32,15.46-25.96,24.66-56.03,36.31-85.73q14.625-27.735,29.25-55.48C2881.65,3577.6,2899.61,3546.28,2893.69,3541.3Zm65.56,0c-57.57,59.83-81.56,161.97-97.84,262.25,0.67,0.34,1.35.67,2.02,1.01,44.92-31.34,58.08-84.94,74.64-145.25q6.045-29.235,12.1-58.5C2950.47,3588.48,2964.23,3547.78,2959.25,3541.3Zm325.77,13.11c16.28,10.01,30.54,19.92,40.34,36.32,26.12,43.66,32.98,208.43,15.13,271.32-7.56,26.64-18.41,49.54-32.27,69.6-46.8.14-62.19-25.92-80.69-53.46-38.42-57.19-66.16-124.75-83.71-202.74-12.18-54.09,18.1-89.34,54.46-104.9,8.25-3.53,21.99-9.99,33.28-7.06-1.24,94.57-7.04,237.05,69.6,253.17v-3.02c-5.56-21.46-3.35-39.98-9.08-60.52C3274.77,3691.06,3245.81,3614.71,3285.02,3554.41Zm-608.18,2.02c-14.9,9.92-27.86,16.18-38.33,30.26,4.83,11.07,14.94,24.37,24.21,31.27q17.655-16.14,35.3-32.28C2701.34,3579.27,2682.34,3558.19,2676.84,3556.43Zm-1576.43,27.24c-1.43,9.78,4.81,20.35,8.07,28.24,20.9,50.47,53.87,81.46,103.89,102.88,8.36,3.58,48.46,21.4,57.49,15.13l-16.14-48.42C1226.96,3621.66,1171.35,3600.05,1100.41,3583.67Zm797.8,3.02c-15.81,7.82-34.7,10.42-35.3,33.29,12.63,24.43,107.05,21.55,124.05,4.03v-30.26h-2.01q-27.24,2.025-54.47,4.04C1919.49,3594.91,1913.05,3587.32,1898.21,3586.69Zm-311.66,10.09q2.535,0.495,5.05,1.01c-0.92,99.17-12.8,198.99,58.5,231.99,1.53-2.31,1.84-1.23,1-4.04,8.4-30.28-15.36-90.61-23.19-111.96q-2.52-20.175-5.05-40.34c-6.44-35.66,1.04-78.46,35.3-69.6,43.69,31.46,48.35,186.57,33.29,258.21-6.17,29.35-14.4,66.51-45.39,69.6-31.53,3.14-46.92-27.43-58.5-45.39-28.52-44.22-47.08-89.29-64.55-147.26-6.18-20.51-16.5-55.61-8.07-82.71C1526.18,3620.2,1559.18,3616.74,1586.55,3596.78Zm2114.01,9.08c-17.22,7.1-38.18,4.94-54.46,11.09-55.09,20.81-105.54,66.38-107.92,136.17h1c94.24-31.71,128.04-63.43,171.46-145.25-0.33-.67-0.67-1.34-1-2.01h-9.08Zm-1071.12,5.04c-10.79,10.1-39.39,14.46-44.38,29.25q18.66,13.11,37.32,26.23,11.6-2.025,23.19-4.04c12.9-2.36,20.66,3.48,29.25,5.04,17.01,3.11,37.95-10.59,46.4-18.15-7.27-13.4-11.92-29-23.2-38.33h-4.03c-6.06,7.36-20.49,19.46-31.27,21.18C2656.66,3624.39,2640.99,3612.19,2629.44,3610.9Zm-166.42,41.35c1.01,0.34,2.02.68,3.03,1.01q0.495,17.145,1,34.3-10.59,5.535-21.18,11.09c-17.24,7.31-34.87,11.04-56.48,14.12C2399.86,3676.99,2437.43,3672.99,2463.02,3652.25ZM1341.47,3895.34c60.3,11.02,49.13,88.93-3.03,90.78-17.02-5.58-55.02-39.39-38.32-66.57C1308.57,3905.78,1325.05,3901.89,1341.47,3895.34Zm2119.04,1.01c35.48-.41,38.07,20.4,53.46,39.34-7.41,23.77-20.38,34.03-31.27,52.45C3422.11,3985.33,3404.37,3924.45,3460.51,3896.35Zm-1594.58,81.7q25.725,0.51,51.44,1.01,48.915,6.045,97.84,12.1,41.34,9.585,82.7,19.17c55.08,18.92,106.68,33.82,159.36,56.48q59.49,27.24,119.01,54.47c11.96,5.98,30.07,21.74,49.42,18.16,23.65-4.38,38.96-19.81,57.49-29.26l74.64-29.25q34.29-15.63,68.58-31.27,75.645-24.7,151.29-49.42c31.25-11.4,66.98-8.81,101.87-15.13,31.84-5.76,94.53-14.11,131.11-6.05q82.7,17.655,165.41,35.3c35.08,7.16,56.03-23.68,82.71-29.25,61.43-12.82,122.03,44.47,152.29,66.57v1.01q-21.675,14.625-43.37,29.25-5.04,14.115-10.08,28.24c-9.5,19.28-34.81,33.48-54.47,42.37-161.39,72.96-356.7,33.31-470-56.49,0.67-1.01,1.35-2.01,2.02-3.02q28.23-6.06,56.48-12.11c53.29-10.33,116.94-4.8,154.31-30.26v-1.01c-132.4-50.93-288.67,20.14-383.26,57.5-57.78,22.82-122.84,36.68-170.45,69.6,0.67,1,1.34,2.01,2.02,3.02q23.7,14.115,47.4,28.24c49.7,25.81,95.32,55.6,143.22,81.71,15.98,8.71,60.65,29.14,65.56,45.38,5.62,18.6-7.13,58.67-9.08,76.66-11.24-3-18.91-14.69-27.23-21.18l-66.57-50.43c-68.39-48.64-143.88-99.46-224.91-133.14-74.25,27.67-131.4,82.96-194.66,122.04q-56.985,39.345-113.97,78.68c-1.01-.67-2.02-1.35-3.03-2.02-5.27-23.49-17.98-48.4-15.13-75.65l29.25-21.18c23.65-14.56,47.75-28.14,70.6-42.36q79.17-43.875,158.35-87.76c-0.33-1.01-.67-2.01-1.01-3.02-27.62-29.04-82.51-39.09-123.04-54.47q-97.32-35.295-194.66-70.61l-75.65-13.11c-45.27-9.81-122.09-9.18-153.3,12.1,0.67,0.34,1.34.68,2.01,1.01,25.52,27.8,162.31,23.83,205.76,44.38-0.68,1.01-1.35,2.02-2.02,3.03q-29.25,18.15-58.5,36.31c-28.96,15.84-58.16,31-91.78,42.37-110.14,37.22-284.33,9.44-356.03-46.4-14.42-11.23-16.92-35.93-28.24-50.44q-21.18-12.09-42.36-24.2c0.33-1.01.67-2.02,1-3.03,13.1-27.3,101.51-77.92,148.27-67.58,31.44,6.96,57.44,20.39,90.77,26.23,17.76,3.11,30.85-4.53,42.36-8.07l78.67-19.17Q1831.14,3981.07,1865.93,3978.05Z"/>
</svg>
