<svg xmlns="http://www.w3.org/2000/svg" width="500" height="500" viewBox="0 0 500 500">
  <defs>
    <style>
      .cls-1 {
        fill: #ff9800;
        fill-rule: evenodd;
      }
    </style>
  </defs>
  <path id="Shape_317_1" data-name="Shape 317 1" class="cls-1" d="M245.4,10.013c22.906-.2,43.155,2.006,61.384,6.661C387.233,37.216,443.844,90,473.249,161.648c6.161,15.012,10.174,31.339,13.734,49.227l2.289,18.421,0.312,5.62q0.209,5.151.416,10.3v9.575q-0.053,3.174-.1,6.348-0.624,7.962-1.249,15.924-1.4,9.261-2.809,18.525c-3.624,16.414-7.685,31.653-13.629,45.688-28.886,68.2-81.155,116.285-155.23,139.354-9.565,2.979-19.763,4.575-30.277,6.661l-11.444,1.457c-6.5,1.11-13.471.162-20.288,1.249l-9.572-.1-6.347-.1c-4.937-.783-10.194-0.451-14.878-1.249-8.622-1.469-16.747-1.884-24.658-3.851a291.41,291.41,0,0,1-49.107-16.443C98.443,445.289,54.285,400.8,31.384,348.772A295.63,295.63,0,0,1,18.9,313.8c-3.326-11.142-4.847-23.181-7.075-35.8-0.97-5.5-.348-11.048-1.248-16.86a69.9,69.9,0,0,1-.208-15.923c0.716-4.53-.051-9.119.624-13.321,1.023-6.365.784-12.431,1.977-18.421,3.068-15.411,5.671-30.015,10.82-43.3,4.188-10.8,8.062-21.755,13.63-31.326,3.837-6.595,7.443-13.21,11.444-19.566a229.856,229.856,0,0,1,53.061-58.073c6.873-5.208,13.916-10.339,21.329-14.986l15.814-9.054c9.561-5.576,20.523-9.445,31.317-13.634,14.785-5.739,31.01-8.323,48.483-11.552l18.1-1.665Zm0,8.326-8.22.312-17.791,1.665c-16.7,3.1-32.246,5.64-46.4,11.136-8.7,3.376-16.97,6.99-25.178,10.615-7.458,3.294-14.54,7.863-21.225,12.073-22.825,14.372-43.187,32.31-59.2,53.494a283.149,283.149,0,0,0-17.167,25.29l-6.763,12.385c-5.283,9.064-8.623,19.643-12.589,29.869-5.014,12.929-7.286,27.366-10.092,42.462C19.6,223.922,20.045,230.283,19,237q-0.156,4.111-.312,8.222V254.9L19,263.016c0.974,6.155.487,12.011,1.561,17.8,2.277,12.268,4.1,23.941,7.491,34.761a283.808,283.808,0,0,0,10.82,29.557c22.63,51.56,65.8,94.091,117.463,116.666,14.207,6.207,29.288,10.854,45.986,14.987,7.167,1.773,14.5,2.1,22.265,3.434,4.581,0.785,9.74.48,14.566,1.249l6.347,0.1,9.364,0.1c6.391-1.012,12.924-.111,19.039-1.145l12.8-1.665c9.58-1.914,18.915-3.411,27.675-6.14C385.616,450.53,436.382,404.415,464.2,338.885c6.326-14.9,10.319-30.954,14.149-48.6,1.67-7.691,1.5-15.6,2.809-23.937,0.567-3.606-.08-7.554.521-11.448V241.472l-1.041-15.194c-1.144-6.773-1.491-13.541-2.913-19.982-3.446-15.608-7.421-29.975-12.9-43.295C439.131,100.553,393.4,57.16,329.984,32.389c-11.195-4.373-23.385-7.193-36.1-9.991C279.225,19.174,263.068,18.352,245.4,18.339Zm47.547,21.855h1.769a6.231,6.231,0,0,1,.1,3.851c-3.459,1.878-5.142,1.648-7.491-1.249a6.7,6.7,0,0,1,1.664-2.5Zm5.41,1.665c2.29-.083,3.752.712,4.37,2.29-0.049,3.258-5.113,4.488-6.555,1.769C294.98,44.1,297.486,42.49,298.355,41.86Zm-93.534,4.267c2.432-.032,5.5-0.68,8.324-0.312,1.319,4.129,3.969,12.317,3.641,16.756-1.758.407-6.336,2.118-7.387,0.624,0.037-1.176-.767-2.767-1.144-3.955l-2.185-8.43A17.935,17.935,0,0,1,204.821,46.127ZM240.2,46.543c6.254-.09,13.553-0.555,19.143.416,1.129,0.2,4.592.106,4.474,1.041q-0.052,3.07-.1,6.14l0.416-.208,6.451-5.2c3.713-2.252,8.844-1.938,14.046-1.561-0.826,5.774-3.9,10.775-6.555,14.779a80.858,80.858,0,0,1-12.381-1.353l-9.364-.312a74.112,74.112,0,0,0-16.751.208l-8.219.52-3.745.624c-1.814,1.354-2.368,4.125-4.37,5.412-1.881,1.208-5.8.448-8.323,0.416v-0.1c1.01-2.1,3.515-3.275,4.889-5.1,0.017-3.268-3.169-11.267-2.5-12.905,2.4-.4,4.322-1.227,7.283-1.249,0.455,1.85,1.172,5.2,2.393,6.453h0.1c-0.008-2.1-.945-6.062-0.52-7.077Zm-39.432.416a5.592,5.592,0,0,1,2.081.416L204.717,53q1.3,5.463,2.6,10.928c-8.181,2.882-16.679,3.273-24.553,6.244-1.845.7-4.269,0.926-6.035,1.977A12.521,12.521,0,0,1,166.742,83.7l-0.1-.1c0.333-2.8,2.535-5.021,1.249-8.118-1.353-3.256-3.834-5.985-5.723-8.846-0.544-.824-2.2-2.461-1.872-3.643,1.856-.411,6.373-3.452,8.011-2.81,0.757,1.834,3.137,5.808,5.41,6.036,1.983-.587,3.445-1.3,5.2-1.977V63.923c-2.338-1.726-4.353-4.229-6.971-5.62,0.035-.1.07-0.208,0.1-0.312,4.815-1.725,9.309-4.525,15.711-4.579-0.1,1.007-.387,8.231.208,9.054,3.351-.9,7.708-0.958,9.572-3.33q-1.3-5.463-2.6-10.928l0.1-.208ZM305.742,47.9c-0.4,3.408-4,6.187-4.89,9.783,4.426,0.136,5.037-5.533,7.6-7.7l6.451,2.6c-0.457,2.19-7.759,13.339-9.364,14.57-4.145.076-7.632-1.482-11.029-2.5l-13.421-2.706,0.208-.208,3.121-4.163C289.347,50.848,293.828,47.061,305.742,47.9Zm-63.361,2.81-8.012.624q-0.051,1.4-.1,2.81h0.521l8.739-.208,11.237,0.208V53.828a18.553,18.553,0,0,0-.313-2.394A72.319,72.319,0,0,0,242.381,50.706Zm33.4,0.416-3.537,1.769c0.034,0.069.069,0.139,0.1,0.208,1.307,0.453,2.558,1.325,4.369.833v-0.1C276.333,53.043,276.376,51.7,275.778,51.122Zm41.825,2.5c2.688,0.141,4.529,1.952,6.658,2.706v0.416l-2.393,3.226c-2.709,3.716-6.88,10.631-11.34,12.281-1.9.7-7.459,1.066-9.052-.208,1.2-2.023,4.18-2.778,6.035-4.163,1.728-1.291,2.745-4.009,3.953-5.828Zm-24.346,2.186c1.007,0.042,2.48.15,3.017-.312a5.762,5.762,0,0,0-.416-1.665l-2.6.208v1.769Zm45.986,2.29,0.209,0.208c-1.377,3.536-6.265,7.162-6.659,10.407h0.1c2.353-.647,4.375-1.263,6.971-1.769l4.578,0.729v-0.1l-1.873-1.873-2.913-3.33c0.034-.069.069-0.139,0.1-0.208,5.325-.311,11.751,3.331,12.8,7.389,0.612,2.374-.714,4.177-0.937,6.557l0.1,0.1c5.055-.051,9.165.538,11.341,3.33,1.144,1.468,1.169,3.393,2.081,5.2,0.863,1.713,6.811,5.279,9.051,5.516v-0.1a30.9,30.9,0,0,0-5.1-9.263c0.035-.1.07-0.208,0.1-0.312h0.105c3.579,0.9,11.51,4.692,10.4,9.783-0.479,2.2-1.778,3.886-2.393,5.828-0.368,1.162-.039,5.229-0.625,6.036-5.925-2.392-9.811-7.469-15.086-10.615-2.9-1.731-7.029,1.174-10.82-.1-2.5-.842-5.433-2.709-6.346-5.1-0.629-1.644-.16-4.191-0.937-5.308-4.2-1.375-7.5-5.206-12.277-6.14-1.3-.255-4.672,2.305-5.826,2.81-4.462,1.952-11.034.329-13.213-2.6,0.034-.069.069-0.139,0.1-0.208,2.68,0.071,6.738-.176,8.115-1.561-0.733-2.04-2.478-2.7-3.954-3.955,1.44-3.895,6.79-9.469,11.237-10.407C331.551,58.218,336.108,59.691,339.243,58.1Zm-14.149,6.348a6,6,0,0,0,.52,2.6c2.015-.45,3.228-0.349,3.641-2.394h-0.208Zm-168.756.624c1.311,0.149,1.681,1.125,2.5,1.769,1.43,3.281,5.079,5.664,6.034,9.367-4.158,3.883-10.858,5.623-15.918,8.534l-15.5,8.846c-3.3,2.06-6.208,4.728-9.884,6.349l-0.208-.1c-0.039-9.046-5.64-12.3,0-19.462,0.582-.74,2.9-3.6,3.641-3.226,3.56,1.491,5.371,5.51,8.74,7.285l5.514-3.434V80.679c-0.95-.73-4.992-5.617-4.786-6.765,1.534-.418,5.019-3.387,6.451-3.018,3.514,1.832,5.656,9.831,10.924,2.914a28.487,28.487,0,0,1-3.85-5.412l0.313-.624L153.425,66ZM289.3,65.38a5.772,5.772,0,0,1,4.578,1.769c-0.884,4.975-8.319,2.91-7.387,0C287.024,66.041,288.149,65.889,289.3,65.38Zm7.075,1.561c1.9-.072,4.034.806,4.162,2.5-1.558,3.323-4.864,3.114-6.763.312C294.056,68.3,295.218,67.559,296.378,66.941ZM119.3,75.579a8.731,8.731,0,0,1,4.162,1.353v0.1c-1.5,6.027-4.992,3.748-7.595.728,0.034-.139.069-0.277,0.1-0.416Zm-5.722,4.579c1.9-.084,4.355,1.188,3.849,2.914a1.693,1.693,0,0,1-1.04,1.353c-2.31,1.7-4.641.852-6.138-1.249C110.772,81.09,111.786,81,113.577,80.159Zm47.339,0.312,0.52,0.1,3.537,3.33c-0.034.1-.069,0.208-0.1,0.312-2.169,1.1-4.707,3.41-6.97.624-0.374-.46-1-0.858-0.833-1.561C157.779,81.915,159.867,81.537,160.916,80.471Zm191.957,1.977c-0.414.751-1.037,1.883-.624,2.706a4.452,4.452,0,0,0,4.578-1.041V83.8A13.757,13.757,0,0,0,352.873,82.448ZM127.1,85.57q-0.207,1.4-.416,2.81a8.087,8.087,0,0,0,3.954-1.561l-0.312-.208Zm23.618,0.208a6.209,6.209,0,0,1,4.578,2.29v0.52c-1.266.953-2.216,1.951-4.162,2.29-1.045.182-1.722-.27-2.393,0-0.516,4.938-4.983,4.585-7.387,1.249V91.815c1.27-1.037,1.929-2.123,3.954-2.5h2.184C148,87.239,148.935,86.6,150.72,85.779ZM322.6,86.195c5.117,1.236,8.426,6.253,5.514,12.7-2.18,4.825-6.726,10.131-10.092,14.05l-31.213,37.882q-5.253,5.568-10.508,11.136c-6.439,7.257-12.323,14.7-16.126,24.354-3.2,8.127,1.135,20.067,2.809,26.955,0.931,3.831.682,8.155,1.456,12.384q0.105,2.5.208,5a27.057,27.057,0,0,1-.416,9.158c-2.429,10.151-4.407,16.074-12.8,20.295-2.044,1.028-4.15.944-6.971,1.457-6.7,1.216-12.988-3.433-16.334-5.933-12.938-9.665-17.24-21.872-21.121-39.756-1.333-6.146.437-13.585-.728-19.982-0.382-2.1.358-4.435-.416-6.036l-11.237-12.8c-8.39-10.65-18.069-20.612-24.866-32.783a66.8,66.8,0,0,1-3.433-8.43,93.421,93.421,0,0,1-5.306-16.652c-0.332-1.766-.748-4.818-0.208-6.765,0.371-1.339,3.811-4.822,5.41-4.891,4.774,1.695,4.547,7.18,5.722,12.281,2.009,8.713,2.918,17.923,5.931,25.393,2.6,6.456,6.377,9.467,10.2,14.363l16.23,18.941c2.417,3.034,8.179,7.838,9.468,11.344q0.053,12.175.1,24.353c0.582,3.592.366,7.089,1.145,10.408,2.989,12.744,7.755,24.01,20.7,27.059l6.867,0.1c9.712,0,13.558-5.888,15.5-13.634,0.412-1.641.111-3.253,0.416-5.2v-7.8q-1.56-6.921-3.121-13.842-0.988-5.36-1.977-10.719c-0.915-4.632-1.09-12.208.208-16.444,1.232-4.021,3.765-6.534,6.034-9.471,3.1-4.011,6.493-7.784,9.572-11.76,11.894-15.356,25.635-29.292,36.415-45.688,3.478-5.29,6.625-13.17,9.26-19.15C317,93.3,318.465,88.944,322.6,86.195ZM123.669,116.688c-0.59,8.837-7.732,15.915-14.046,19.046-2.387,1.184-9.345,2.144-10.924,3.538l-1.873,3.018a12.77,12.77,0,0,0,4.058-1.144c4.408-1.431,8.175-3.1,12.173-4.58,2.343-.869,5.6-1.257,6.346,1.353,0.773,2.7-.684,4.748-2.6,5.2-2.936.7-4.685-1.553-6.971-1.977l-3.849,1.353c-2.778,1.043-9.193,3.383-10.925,5.2C95.2,155.029,92.35,158.888,91,164.77l0.52-.416,1.769-2.914,2.289-6.244c0.657-1.85.827-4.075,2.289-5.1,1.871-1.311,6.221-.709,8.427-0.625C105.348,160,97,166.9,89.023,170.911a54.445,54.445,0,0,1-8.219,3.33c-1.052.328-3.822,0.514-4.37,1.353L75.5,181.006h0.1l0.416-.417,16.126-9.782c1.822-.429,5.054,1.808,3.954,4.058-0.551,1.128-2.478,2.556-3.537,3.227-1.177-.5-2.885-2.01-4.578-1.665-2.53.515-10.615,6.151-11.341,8.221-1.278,3.648-.93,8.47-1.561,12.489l-0.1,4.475,0.416-.208q0.78-2.654,1.561-5.308c1.037-4.517-.834-9.243,4.474-10.2a10.963,10.963,0,0,1,4.162-.1c0.186,12.55-6.548,17.327-12.8,23.521-2.006,1.989-4.289,2.871-4.266,6.973a4.27,4.27,0,0,0,.208,1.977c3.652-2.546,7.69-7.848,10.4-11.448,1.416-1.879,3.072-5.29,5.306-6.244,3.47-1.483,6.816,5.5,3.225,6.972l-6.347.417-1.977,2.6c-2.666,3.477-6.632,6.713-7.387,11.968l1.977,8.95c0.678,3.377.477,7.566,2.185,9.991h0.1v-0.208A8.911,8.911,0,0,0,76.538,237c-0.369-2.25-.184-4.127-0.624-6.14-1.1-5.018-2.2-7.933,2.5-10.095l3.433-1.249c0.562,2.326,1.025,4.754,1.457,7.181,1.81,10.188-4.106,20.281-8.219,25.394l-4.37,4.475,1.352,4.892H72.48l2.705-3.019,4.058-7.077,3.329-4.787c1.455-2.423,2.688-6.539,5.306-7.7,2.494-1.107,6.322,2.891,5.41,5.411-0.725,2-2.992,3.007-5.306,3.435l-2.6.1c-2.171,1.4-6.236,9.621-7.491,12.489-0.463,1.057-1.735,3.309-1.561,4.683l2.6,4.683,2.081,5c0.983,2.424,2.05,8.557,3.746,9.991h0.1v-0.208c1.83-4.357-3.546-15.422-4.89-18.109a36.082,36.082,0,0,1,7.075-6.973l0.416,0.1,2.081,3.643a30.989,30.989,0,0,1,2.081,6.869c1.9,8.263-1.518,18.656-4.578,23.416l-5.514,7.91c-0.895,2.31,2.168,7.121,3.746,7.6l2.081-3.851,2.809-8.013,2.6-5.932c1.136-3.656,1.348-8.8,5.41-9.679,3.416-.737,5.6,3.787,4.161,7.181-0.925,2.187-4.749,2.542-7.283,3.122-0.659,4.672-2.634,8.992-4.058,13.321-0.447,1.362-1.613,4.038-1.144,5.933,0.518,2.095,2.88,3.875,4.058,5.515l6.971,10.616a13.472,13.472,0,0,0,2.7,3.538v-0.312c-1.75-5.27-3.381-9.727-6.243-13.737-0.823-1.154-3.394-3.6-3.121-5.2,0.453-1.091,4.656-7.13,5.514-7.389,4.758,2.779,7.355,8.6,8.636,14.882q0.207,2.759.416,5.516a29.6,29.6,0,0,1-.208,10.1c-1.2,4.786-3.445,7.731-4.474,12.177-1.122,4.845,3.246,7.2,6.243,8.326q0.051-12.124.1-24.249c0.612-3.849-.955-5.53,1.872-7.39,3.319-2.182,7.6,1.778,6.555,5.62-0.731,2.693-3.47,3.513-5.618,4.788-0.977,5.1.47,18.9,2.081,21.959,3.99,0.656,11.05,6.132,14.045,8.43,1.93,1.481,3.816,3.675,6.555,4.267l-0.208-.208c-1.989-6.095-11.345-9.506-15.5-13.842a19.436,19.436,0,0,1,2.393-10.3c3.966,0.591,7.577,4.183,9.884,6.661a41.294,41.294,0,0,1,9.052,38.611c-1.055,3.832-1.908,7.722-4.058,10.511-1.445,1.876-10.589,2.615-13.837,3.227-14.421,2.714-22.2-1.2-30.692-6.557-3.508-2.213-6.925-4.54-9.364-7.806,1.524-3.4,5.327-3.07,7.8-5.411,1.994-1.886,2.6-5.288,4.786-6.973H96.41c3.447,6.8,13.423,18.822,22.889,18.837v-0.1c-1.028-1.4-3.035-2.222-4.474-3.226a42.717,42.717,0,0,1-6.762-5.724,45.479,45.479,0,0,1-6.243-8.847c-0.718-1.311-1.4-3.757-2.6-4.579-3.732-2.561-10.585-2.29-16.751-2.289l-4.266-.105c-0.879,1.133-1.82,4.62-3.225,5.1-2.682.916-6.635-1.2-5.618-4.475,0.4-1.283,2.119-2.854,3.121-3.643a14.224,14.224,0,0,1,4.266-2.706c7.654-2.672,15.268,1.547,21.745,1.666l-3.641-7.077c-4.041-.938-8.867-1.066-12.8-2.082-12.452-3.217-19.127-7.379-25.7-16.443-2-2.758-6.812-7.878-5.93-12.7l7.907-.313,6.971-5.1,0.312,0.208,1.144,5.1c1.819,6.789,5.221,18.457,12.693,20.191l-3.745-5.62a44.8,44.8,0,0,1-4.682-10.72c-0.789-2.478-.334-9.292-1.873-11.552l-3.641-2.5-4.682-2.393c-3.06-1.837-5.512-3.505-9.26-4.788-1.139,1.15-2.419,3.43-4.162,3.851-2.539.612-5.164-2.915-4.37-5.412,0.682-2.145,6.968-4.444,10.3-3.642,5.42,1.3,9.992,4.251,14.15,6.972,1.449,0.949,2.844,2.314,4.578,2.915-0.334-1.852-.444-4.439-1.248-5.933l-5.1-2.185c-13.113-5.1-20.77-10.162-26.219-23-1.14-2.686-3.258-6-3.642-9.055,2.3-3.553,5.07-1.006,8.74-1.145,1.346-.051,5.533-2.528,6.451-3.33l0.312,0.208c0.107,7.959,1.353,15,4.058,20.294,0.909,1.779,2.25,4.62,4.37,5.1v-0.1a53.559,53.559,0,0,1-3.537-9.679q-0.208-2.392-.416-4.787c-0.509-3.237.877-11.1-.312-13.322l-2.393-1.977a142.972,142.972,0,0,0-11.757-8.95c-2.13.758-3.851,2.847-6.555,2.185-2.866-4.911,1.293-9.335,7.491-7.6,5.06,1.419,8.838,5.993,12.381,9.366l4.474,3.643,0.208-.1-0.416-2.914c-0.741-1.295-2.457-2.233-3.642-3.122a84.74,84.74,0,0,1-9.052-7.285c-6.751-6.736-9.536-16.014-9.468-29.245h0.312l5.722,2.6c2.4,0.512,4.646-1.926,6.555-2.29,0.259,4.878-1.548,10.556-.728,15.4a30.163,30.163,0,0,0,2.185,7.285c0.5,1.133.882,2.592,1.977,3.122a46.844,46.844,0,0,1-1.144-17.692c0.445-2.652,2.055-6.028,1.249-9.055-0.866-3.247-7.453-10.522-10.092-12.384-1.191.036-3.019,1.5-4.058,1.04-3.231-1.254-1.852-4.637-.416-6.66h4.682c1.421,0.342,2.263,1.664,3.225,2.5a42.128,42.128,0,0,1,5.93,6.557c1.347,1.808,2.285,3.712,4.37,4.787,0.082-4.652-4.21-7.6-6.242-10.511A33.964,33.964,0,0,1,44.6,194.535q-0.052-4.318-.1-8.638c0-3.524.207-7.055,1.457-9.47,2.324,0.065,3.323,1.772,4.89,2.6,1.612,0.854,4.481.825,6.555,1.041v0.312A56.752,56.752,0,0,0,52.4,194.015c-0.466,2.173-.321,5.724.832,6.973h0.1V200.78l1.769-9.575c1.339-3.988,4.923-8.1,5.618-11.864,0.225-1.221-4.168-11.273-4.89-12.489a13.3,13.3,0,0,1-4.89-1.249c-0.118-5.316,3.1-5.319,6.138-2.914a16.469,16.469,0,0,1,4.994,7.805c0.677,2.279.6,6.48,1.873,8.014l0.1,0.208c3-2.259,2.588-5.025.832-8.326-4.729-8.888-8.386-17-4.578-29.453,0.831-2.719,1.287-7.306,3.642-8.429,2.494-1.158,3.563,2.573,4.786,3.538,1.493,1.178,4.7,1.626,7.075,1.769-0.353,1.279-1.6,2.307-2.289,3.331-2.414,3.58-5.974,8.385-6.451,13.009-0.213,2.068-1.234,5.092.624,6.244,0.158-4.168,2.951-11.15,5.1-13.529,2.591-2.872,5.665-5.325,6.45-9.991,0.534-3.173-1.9-12.455-3.329-13.53-1.39-1.044-4.155-.92-5.1-2.394-1.1-1.719,1.6-3.916,2.7-4.267,2.379-.752,4.568,1.718,5.514,2.914,4.254,5.378,2.663,11.1,4.578,18.213h0.1c1.238-.608,1.973-2.18,2.705-3.33a23.2,23.2,0,0,0-1.977-4.892,38.311,38.311,0,0,1-1.977-6.764c-2.188-9.572,1.672-18.458,4.89-24.145h0.416c1.509,1.441,4.2,5.114,6.138,5.724l3.746,0.728-0.208.416a12.78,12.78,0,0,1-2.185,2.706c-3.15,3.72-7.145,9-5.93,15.924h0.208c0-3.564,1.671-7.093,3.121-9.471,3.6-5.912,13.29-13.1,19.456-16.652,2.367-1.362,4.817-3.379,7.491-4.371v0.624c-2.612,6.59-3.038,14.948-5.2,22.168q-1.092,3.8-2.185,7.6l-2.393,6.348c3.653-3.032,4.031-9.675,6.659-13.738h7.179ZM362.133,94.937c1.834,0.019,4.945,1.833,4.369,3.643-1.673,3.752-6.2,2.29-8.219,0C358.784,96.712,360.419,95.686,362.133,94.937Zm27.675,261.12c3.548,0.078,7.747-3.367,6.971-7.285-0.86-4.338-3.444-7.331-4.474-11.552-0.589-2.412.041-5.205-.416-8.014a27.612,27.612,0,0,1,4.994-20.19q1.664-1.874,3.329-3.746c2.2,1.315,4.94,6.059,6.242,8.429-2.293,4.5-5.263,8.344-7.6,13.01-0.518,1.037-1.973,3.488-1.144,5.411l0.312-.208,7.491-12.593c1.394-1.909,3.542-3.383,4.474-5.724,1.946-4.889-3.463-17.407-5.2-20.294-7.217-.038-10.362-8.413-3.954-10.2,3.286-.916,5.582,4.561,6.243,6.765,1.432,4.775,3.174,8.859,4.89,13.321,0.959,2.5,1.658,5.7,3.537,7.285,1.137-.864,4.331-4.811,3.642-6.973-1.191-3.733-4.734-6.809-6.659-10.1-2-3.414-2.571-7.5-3.434-12.072-1.14-6.053.056-13.169,2.185-16.756,0.443-.746,1.213-3.187,2.7-2.706,1.329,0.428,5.429,5,6.347,6.244-0.775,4.137-6.822,13.258-4.89,18l0.312-.208q0.885-1.821,1.769-3.643,1.821-4.787,3.641-9.574c1.031-2.109,2.73-4.119,3.122-6.765,0.264-1.789-1.172-3.534-1.769-4.684-2.062-3.97-4.1-8.479-6.867-11.864h-5.618c-0.929-1.439-2.451-2.51-2.705-4.371-0.42-3.068,3.86-5.353,6.138-3.643,2.231,1.675,3.016,4.924,4.474,7.39l3.954,5.411c1.7,2.881,3.44,7.153,6.034,9.159l0.312-.208c0.5-1.537,1.527-2.572,1.769-4.475-1.914-2.728-4.389-4.775-6.347-7.39-3.819-5.1-7.65-14.146-6.138-23.832a44.889,44.889,0,0,1,1.56-6.349,19.085,19.085,0,0,1,6.659,4.371c0.007,4.127-3.311,14.639-1.248,17.8v0.208l0.416-.1q1.56-7.961,3.121-15.923l1.561-4.476-2.705-3.954a59.529,59.529,0,0,0-7.387-9.055c-2.426.093-5.824,0.883-7.179-.728-2.234-2.658-1.041-6.948,2.913-7.181,3.9,2.385,8.72,9.286,11.653,13.009,1.423,1.807,2.875,4.789,6.346,4.163-0.057-4.729-4.507-7.358-7.387-9.679a31.279,31.279,0,0,1-8.739-12.385c-0.75-1.777-2.877-7.491-1.873-9.991,3.014,0.065,6.271.8,7.075,3.122,1.256,3.625.494,11.216,3.121,12.905l0.208,0.209c0.035-.105.07-0.209,0.1-0.313q0.053-2.393.1-4.787c-0.564-3.583-.8-7.165-1.456-10.407l-0.312-2.5c-0.337-.657-9.889-7.215-10.925-7.493-2.423-.652-3.735,1.858-6.138,1.144-1.346-.4-2.974-2.246-2.289-4.058,0.98-2.6,3.7-2.335,5.93-1.145,5.058,2.7,8.957,6.69,14.774,8.638a9.219,9.219,0,0,0-1.04-4.163c-1.49-2.031-8.123-3.75-10.821-4.892-6.564-2.779-12.227-7.115-15.71-13.009-1.025-1.735-3.947-7.115-3.225-8.846,2.313-.033,6.871-0.655,8.531.312l0.936,2.81c1.564,4.775,3.052,9.288,5.515,13.113l0.208-.1c-0.031-4.96-2.343-8.525-3.538-12.488-0.549-1.824-.447-4.784-1.56-6.141-2.042-2.489-10.011-5.519-13.734-6.348-3.108-.692-4.01,3.654-7.075,2.5-4.724-2.105-1.965-8.877,1.977-7.7l3.954,1.977a58.618,58.618,0,0,0,14.253,5v-0.312l-0.936-2.706c-1.271-1.8-8.631-2.615-11.132-3.643-5.074-2.084-10.563-8.043-13.214-12.7-0.81-1.423-2.525-4.327-1.976-6.244h7.491c1.918,4.07,2.352,10.317,5.93,13.009l0.208-.1c-0.326-4.234-2.185-7.643-3.329-11.24-1.488-4.676-1.88-8.968-3.122-13.634-0.523-1.967-2.526-8.772-1.664-10.719h0.1c7.183,4.711,13.892,8.864,19.872,14.674l4.786,4.684c1.719,2.474,2.789,8.974,4.578,10.719,0.356-9.021-4.576-14.385-9.156-19.149v-0.1c1.783-1.336,4.235-1.471,6.659-1.978q0.831-1.821,1.664-3.642l2.809-.209c1.8,4.058,3.94,8.2,4.994,13.53,0.891,4.5-.652,12.76-1.768,15.3-0.672,1.528-2.441,4.42-1.873,6.765,0.29,1.2,1.31,1.8,1.769,2.809h0.208v-0.208c0.857-2.15.086-5.4,0.52-7.909,0.926-5.363,3.772-14.251,11.132-12.385a5.7,5.7,0,0,1,.416,4.371c-1.338.684-4.117,1.309-4.993,2.5-1.462,1.983-1.989,8.222-2.6,11.032q-0.207,2.028-.416,4.059c0.56,1.864,3.118,3.246,4.266,4.683,3.586,4.489,6.172,8.139,6.242,16.339,3.04-.352,3.186-3.381,2.393-6.036a45.294,45.294,0,0,0-5.826-11.864c-0.677-.977-3.246-3.452-2.913-4.475a16.443,16.443,0,0,0,6.242-1.353c0.489-1.445,3.963-5.62,5.307-5.62l3.225,8.326c1.011,2.843,1.069,6.243,1.665,9.782l0.312,5.308a53.928,53.928,0,0,1-5.1,14.675l-2.914,4.787c-0.738,1.623.856,4.082,2.393,3.434q0.938-2.7,1.873-5.411c1.751-4.83,3.74-13.218,11.445-10.2a5,5,0,0,1,.832,3.643c-1.225,1.533-3.832,1.2-5.618,2.185-1.507,3.781-3.992,7.546-4.786,11.761-0.528,2.8,4.061,8.948,4.994,11.968,1.021,3.305.914,6.824,2.393,9.471l0.312,0.1v-0.208a12.615,12.615,0,0,0,.208-5.412,47.866,47.866,0,0,0-4.89-15.4c0.035-.035.07-0.069,0.1-0.1l5.618-.1,5.515-3.851c1.626,1.857,1.191,5.768,1.664,8.742,1.819,11.438-2.518,18.626-7.075,24.874-1.633,2.24-5.118,4.358-5.306,7.806,0.035,0.069.07,0.138,0.1,0.208l0.313-.1c1.028-1.332,2.586-2.3,3.641-3.643,2.31-2.942,4.254-6.1,7.283-8.326,1.057-.777,3.061-2.612,5.1-2.185,2.3,0.481,3.223,2.11,4.89,3.122v0.416l-2.5,3.539-4.994-.521c-2.171.617-9.767,10.537-10.2,13.113q0.883,5.465,1.769,10.928c0.855,5.285-.535,9.887-1.145,14.258l0.624-.52c0.814-2.26,2.416-3.775,2.913-6.661q-0.207-9.314-.416-18.629h0.1c1.335,0.872,4.468,3.02,7.387,2.29,1.466-.367,4.334-2.769,5.619-2.186q0.363,1.561.728,3.122c0.5,2.306-1.262,7.269-1.873,9.055l-0.936,4.163a37.711,37.711,0,0,1-9.676,14.986l-6.867,5.516-3.433,2.29a4.956,4.956,0,0,0-.312,3.226l0.312-.1,3.641-3.226c2.88-2.539,7.2-7.673,11.029-8.847,3.973-1.219,9.487-.071,10.3,2.914a3.389,3.389,0,0,1-2.289,4.372c-2.566.584-3.4-1.993-5.1-1.77-3.413.45-12.594,8.1-14.15,10.72-1.685,2.833.256,12.492-.624,16.548-1.016,4.68-3.422,7.583-4.682,11.552h0.1c6.748-4.75,8.433-15.043,8.427-26.539,2.907,0.438,4.487,3.226,7.6,3.851,3.155,0.634,4.747-2.679,7.075-.937,1.676,4.145-.932,8.411-2.6,11.76-4.848,9.729-9.584,15-19.352,19.774-1.9.93-11.384,4.019-12.172,5l0.312,5.516,4.786-3.643c3.808-2.549,8.4-5.111,13.317-6.14,5.793-1.213,10.391,1.883,9.26,7.805-5.329,2.628-3.339.973-7.179-1.769-4.3.062-16.728,6.388-18.208,9.367q-0.519,2.654-1.04,5.307c-0.879,3.559-1.317,7.441-2.6,10.824-1.742,4.592-5.1,7.159-7.075,11.344,7.547-2.064,11.594-14.117,13.109-21.335q0.626-2.445,1.249-4.891h0.416c0.594,0.635,4.955,5.192,5.306,5.307l6.243,0.1a9.425,9.425,0,0,1,3.225,1.457c1.175,3.764-3.159,7.233-4.682,9.679a36.843,36.843,0,0,1-17.687,15.4,43.781,43.781,0,0,1-7.387,3.018c-2.852.688-5.818,0.66-8.947,1.145-1.854.287-4.637-.45-5.827,0.208-0.827,2.919-2.814,5.37-3.849,8.43l8.011-2.393h5.93c7.335,0,12.016.481,14.566,5.1,1.643,2.976-.952,7.528-4.682,6.14-1.93-.717-1.794-3.451-2.7-5-6.361.257-16.448-.969-20.5,1.769-2.1,1.418-3.218,4.071-4.474,6.349a29.193,29.193,0,0,1-6.555,8.326c-1.714,1.384-10.19,7.19-10.612,8.638,7.4-2.577,12.891-5.465,17.271-10.928l6.971-8.846,0.312,0.208c0.666,2.46,2.243,7.488,4.474,8.43,1.348,0.569,6,1,6.763,1.873-0.309,1.167-.073,2.479-0.521,3.435-0.949,2.024-6.151,4.829-8.115,6.244-7.528,5.423-17.441,9.661-31.316,7.077-4.662-.868-10.125-0.925-13.318-3.33-1.564-1.179-2.145-3.862-2.913-5.829-1.99-5.093-4.114-13.158-2.809-21.022,1.961-11.816,6.489-21.03,15.086-26.435,1.546-.972,3.242-2.312,5.2-2.81l0.208,0.312c0.747,1.492,2.879,8.222,1.977,10.512-0.645,1.144-2.525,1.9-3.642,2.6-3.51,2.22-10.811,7.163-11.652,11.657,3.144-1.379,4.955-3.65,7.491-5.516l7.387-5c1.715-1.083,5.74-2.333,6.242-4.475q0.417-6.868.833-13.738v-5.62c-0.953-2.5-4.659-3.474-5.411-6.66-0.692-2.934,1.56-4.664,3.33-5.2,5.252-1.6,5.619,3.551,5.618,8.222C390.431,340.412,390.3,348.755,389.808,356.057ZM327.591,104.408l0.624,0.208c0.749,3.277,1.849,6.185.52,10.095-1.3,3.809-4.981,5.962-7.283,8.846-5.271,6.606-10.825,12.872-17.791,17.8l-0.416-.1q-0.78-1.561-1.561-3.123c-0.7-3.11,6.484-9.105,8.012-11.031,4.581-5.777,9.479-11.105,13.837-17.172Q325.563,107.165,327.591,104.408Zm-225.459,14.05c-4.312,3.76-7.355,6.56-7.283,14.778l0.416-.208c4.232-1.884,8-8.514,7.282-14.57h-0.416Zm296.207,1.457a12.191,12.191,0,0,0,0,4.371c0.937,5.412,2.839,8.521,7.491,10.2C405.778,129.122,402.2,121.065,398.339,119.915Zm-70.02.312h0.312c0.035,0.069.07,0.139,0.1,0.208v2.394a10.142,10.142,0,0,1-.832,4.579c-2.958,6.071-8.337,9.648-12.381,14.57q-5.618,6.139-11.237,12.281c-0.069-.035-0.138-0.07-0.208-0.1-0.394-1.8-2.453-4.878-1.352-7.389,1.025-2.341,5.253-4.367,6.971-6.349l13.109-14.778ZM158,124.6c1.72,0.9,3.448,7.793,4.369,9.991,3.044,7.262,8.114,11.149,8.948,20.919h-0.1c-4.64-2.936-6.515-5.34-9.676-9.679-2.836-3.893-8.345-8.707-6.034-16.236A21.465,21.465,0,0,1,158,124.6Zm169.484,10.511,0.416,0.1c0.066,1.375.649,2.916,0.208,4.371-2.221,7.322-9.578,14.373-14.982,18.734-1.856,1.5-5.642,6.2-7.7,6.869-0.035-.07-0.07-0.139-0.1-0.209,0.583-2.313-.488-5.451.312-7.6,1.025-2.751,4.375-5.1,6.347-7.077a95.754,95.754,0,0,0,6.866-7.91q1.509-1.457,3.017-2.914l3.226-3.33Zm-27.571,3.851,0.416,0.208c0.02,1.933.28,4.442-.208,6.036-1.726,5.641-9.09,10.967-12.589,15.3-1.6,1.985-3.814,4.632-6.035,5.932-1.043-7.252,2.212-7.768,5.306-11.656l9.364-12.28Zm-146.075,4.683c2.138,0.327,5.477,4.974,7.179,6.349,4.556,3.679,11.71,6.591,10.3,15.819q-0.1,1.977-.208,3.955l-0.312-.1-4.37-3.227c-1.945-1.717-3.3-4.059-4.89-6.14-2.457-3.213-6.453-6.273-7.7-10.511v-6.141Zm147.323,6.349h0.416v0.52c-0.519,2.069-.272,3.971-1.04,5.62-1.271,2.728-4,4.832-6.035,6.869-4.141,4.143-8.385,8.664-13.109,12.177h-0.1c-0.008-1.865-.4-4.038.208-5.516,1-2.422,4.355-4.679,6.347-6.245a72.684,72.684,0,0,0,8.947-9.054C298.041,152.956,300.329,151.7,301.164,149.992Zm24.138,0.416a0.682,0.682,0,0,1,.52.208c-0.43,1.947.308,4.809-.52,6.765-1.905,4.5-5.659,7.01-8.636,10.407a90.192,90.192,0,0,1-13.213,12.281c-0.281-3.042-.952-7.828.208-10.3,1.033-2.2,5.581-5.031,7.595-6.557Q318.279,156.81,325.3,150.408ZM82.26,152.073l-2.5,1.874c-2.842,2.27-4.329,5.928-5.306,10.095-0.281,1.2-.8,4.635,0,5.724,5.21-3.5,7.961-9.215,8.115-17.693H82.26Zm336.367,1.978c-0.14,10.168,1.759,12.116,6.867,16.86l0.416-.1q-0.051-3.382-.1-6.765C425.133,160.587,421.462,155.268,418.627,154.051Zm-243.561,1.561c1.161,0.377,3.345,4.2,4.161,5.308,3.293,4.464,6.944,8.663,10.2,13.217,0.89,1.245,3.357,3.322,3.434,4.787h-0.1c-7.643-.658-12.321-7.138-15.5-12.7-0.99-1.73-2.439-3.524-2.913-5.724C173.945,158.681,174.679,156.978,175.066,155.612ZM153.009,157.9h0.312c4.571,3.454,8.135,8.453,12.173,12.489,1.5,1.5,4.328,3.112,4.994,5.308,0.463,1.527.968,8.412,0.624,9.679-3.513.247-5.657-3.151-7.8-4.788-3.984-3.036-8.381-7.15-9.884-12.592C152.6,165,152.992,161.416,153.009,157.9Zm149.3,1.457c1,1.576,0,6.473-.833,7.494-3.719,4.537-8.447,9.969-13,13.633-2.033,1.635-3.964,4.457-6.555,5.412v-0.208c-0.44-.879-1.124-4.069-0.624-5.412,0.731-1.962,4.438-4.776,5.931-6.348C291.923,168.977,296.907,163.557,302.309,159.358Zm21.328,5.829c1.31,1.768-1.833,7.734-2.6,8.95l-3.329,3.955A79.194,79.194,0,0,1,302,193.286h-0.1c-0.133-2.433-.473-5.97.417-8.117,1.123-2.711,4.563-4.726,6.762-6.453Zm-46.194.312c0.944,0.733-.213,5.845-0.521,6.556-1.266,2.934-9.349,11.478-12.277,12.385C266.351,176,272.821,171.15,277.443,165.5Zm-103.106.728c0.877,0.367,1.316,1.382,1.873,2.082l7.491,8.638c2.71,2.191,6.653,3.658,8.635,6.557,1.488,2.174,1.05,4.576-.936,5.828-6.381-.8-9.194-6.137-12.589-9.991-1.74-1.976-3.93-4.269-4.474-7.077v-6.037Zm126.307,5.412c1.375,1.913-1.756,7.266-2.393,8.222-2.909,4.368-12.1,14.472-18.1,15.2l-0.1-.1c0.126-4.175,3.289-6.778,5.722-8.743l7.075-7.389C295.045,176.089,298.109,174.055,300.644,171.639ZM278.9,175.594l0.208,0.1c-0.451,4.1-8.533,11.635-11.34,14.154-1.282,1.151-2.742,3.282-4.578,3.747v-1.561c1.238-4,9.786-13.885,13.109-15.82Zm44.738,0.52c1.059,1.172-1.524,7.747-1.977,8.638-3.026,5.965-7.734,11.373-12.277,15.924-1.369,1.371-3.114,4.1-5.618,4.163a6.2,6.2,0,0,1-2.913-3.123c2.839-5.912,7.815-8.978,11.653-13.737A126.121,126.121,0,0,1,323.637,176.114ZM154.985,178.2c5.041,2.071,14.165,8.356,16.855,12.593,1.511,2.378,2.252,6.537,2.5,9.991h-0.312c-8.3-3.478-14.474-9.061-17.791-17.589A14.476,14.476,0,0,1,154.985,178.2Zm18.52,1.561c2.218,0.326,5.247,4.372,6.763,5.828,3.814,3.663,14.03,6.379,12.8,14.258-6.244-.459-7-2.2-10.925-4.995C177,191.2,173.427,188.805,173.505,179.757Zm127.139,2.6c1.576,1.526-.948,6.575-1.561,7.493-2.345,3.515-11.3,13.308-17.167,12.281-1.112-4.244,2.031-5.465,4.162-7.077Zm-22.681.936h0.52c-0.68,6.342-6.493,9.967-10.612,13.01-1.134.837-3.685,3.485-5.306,2.914v-0.1c0.58-2.751,9.619-11.507,11.964-13.322Zm-80.945.417c4.434,2.019,7.272,7.51,7.7,13.529h-0.1l-0.208-.208C201.613,195.7,195.71,188.515,197.018,183.712ZM64.261,190.789c-1.323,3.659-3.208,6.806-4.058,10.823-0.416,1.969-.233,5.821.832,6.765,3.37-2.255,5.754-7.656,4.474-13.529C65.188,193.375,65.2,191.363,64.261,190.789ZM196.082,191.1c2.683,0.976,6.809,7.58,8.011,10.407,0.371,0.871,1.767,3.531,1.249,4.371-4.175-1.611-7.784-4.77-8.948-9.366Zm82.817,0.728c0.649,1.242-1.518,4.418-2.185,5.308-2.242,2.994-8.4,9.33-12.9,9.679-1.66-2.633.388-3.682,1.873-5.62a30.038,30.038,0,0,1,9.572-8.326Zm156.687,1.77c-2.79,4.57-.539,13.292,2.7,15.715a2.343,2.343,0,0,0,1.457-.417C441.565,202.841,438.829,196.056,435.586,193.6Zm-136.815.728h0.416v0.208c0.825,2.012-.088,5.158-0.728,6.557-1.811,3.958-9.771,11.58-14.878,11.968q-0.572-2.809-1.144-5.62c1-1.215,2.639-1.914,3.953-2.81,2.961-2.017,5.46-4.661,8.22-6.868C295.972,196.671,297.719,195.719,298.771,194.327Zm-122.457,1.145c3.232,0.726,13.9,6.629,15.086,8.95,0.93,1.816,1.093,5.285,1.249,7.6-0.035.034-.07,0.069-0.1,0.1-5.387.264-13.491-6.828-15.087-10.72C176.889,200.015,175.932,197.149,176.314,195.472Zm-15.19.937c2.119,0.175,3.845,2.133,5.306,3.122,1.544,1.045,7.825,5.251,8.427,6.556,0.694,1.5.625,3.691,0.625,5.725q-0.052,1.977-.1,3.954C169.632,212.622,162.51,203.683,161.124,196.409ZM278.9,198.7c1.158,1.6-.353,5.466-0.936,6.349-1.455,2.205-8.326,7.976-10.925,8.846-1.008.338-2.466-.462-3.121-0.729v-0.312l2.705-3.85A84.9,84.9,0,0,1,278.9,198.7Zm-84.794,1.353c2.867,0.267,8.283,7.369,9.572,9.679,0.446,0.8,1.7,3.5.832,4.683C200.775,213.1,192.594,205.769,194.105,200.051Zm106.227,4.684q-0.105,1.507-.208,3.018c-1.28,7.261-5.156,10.38-10.4,13.529-1.353.812-4.149,2.592-6.243,2.082a13.329,13.329,0,0,1,.52-5c0.955-2.224,3.759-3.524,5.619-4.891Q294.973,209.106,300.332,204.735Zm-21.017,2.081,0.625,0.1c0.117,1.337.989,3.243,0.416,4.787-1.042,2.806-7.431,6.613-10.092,8.222-0.959.58-2.984,2.372-4.058,1.978C266.635,214.167,274.461,210.365,279.315,206.816Zm-101.648.833c2.812,0.176,4.749,2.537,6.658,3.746,4.578,2.9,7.314,5.609,9.364,11.136-0.035.069-.069,0.139-0.1,0.208C186.325,221.2,177.556,216.4,177.667,207.649Zm16.854,3.434c5.953,0.9,8.26,6.788,10.405,11.552l-0.209.208A15.461,15.461,0,0,1,194.521,211.083Zm106.851,4.059c1.725,1.345-.744,6.333-1.144,6.869a28.354,28.354,0,0,1-10.3,8.638l-4.682,1.873a4.214,4.214,0,0,1-1.561-5.724Zm-34.75,13.321c0.478-4.2,10.256-11.095,13.734-13.113l0.312,0.1c-0.565,1.709-.392,4.09-1.353,5.412C277.063,223.965,271.675,228.575,266.622,228.463Zm-71.164,4.892c-5.822-.151-13.73-4.9-15.815-8.847-0.639-1.21-.634-3.944-0.52-5.515h0.728C186.174,221.52,194.658,225.464,195.458,233.355Zm1.456-13.009c2.555,1.16,9.427,5.829,9.468,8.638h-0.1C202.6,228.682,195.4,225.541,196.914,220.346Zm83.234,2.393c3.409,4.183-4.692,9.82-7.491,10.824-1.1.394-3.572,1.063-4.578,0.624C270.723,228.761,276.033,226.645,280.148,222.739Zm21.744,2.5,0.625,0.1v3.851c-1.078,4.309-8.41,8.195-12.693,9.679-1.544.534-5.138,2.624-6.763,1.977q-0.26-2.341-.52-4.683c2.785-2.21,6.515-3.256,9.676-5.1l6.554-4.267ZM196.6,228.255c5.826-.1,11.072,4.149,12.9,8.43C203.506,236.794,197.064,233.388,196.6,228.255Zm-16.334,2.29c4.2,0.57,7.963,2.822,11.652,4.163,1.988,0.722,4.1.831,5.619,1.977,0.7,0.531,2.207,3.382,1.352,4.579C191.345,239.168,181.271,238.938,180.268,230.545Zm99.047,1.145,0.521,0.1c-0.323,1.2.318,2.905-.313,3.954-1.731,2.881-5.743,3.75-9.467,4.684l-3.122.416-0.312-.1c0.31-.986,1.389-1.532,1.977-2.29ZM61.556,233.459c-1.985,4.47-2.421,16.488,1.249,19.462l0.312-.209L65.3,249.59C67.076,245.035,64.258,234.873,61.556,233.459Zm241.793,0.208,0.52,0.1c-0.19,1.562.012,3.6-.52,4.787-1.829,4.088-14.758,11.286-21.433,10.2a9.939,9.939,0,0,1,.521-4.371l4.369-2.5a70.03,70.03,0,0,0,11.237-5.516Zm136.3,1.353-2.5,2.914c-2.311,3.884-5.039,13.744.1,16.548,3.956-1.7,2.738-13.808,2.705-19.462h-0.312Zm-238.776,2.394c4.653,1.29,10.866,1.655,11.861,6.556h-1.353c-5.1-1.4-8.037-2.567-10.612-6.348C200.8,237.552,200.833,237.483,200.868,237.414ZM183.181,239.5l5.41,0.833c6.271,1.824,11.639,4.084,15.086,8.742v0.312H196.81c-7.126-1.1-9.155-2.112-12.277-7.181A6.428,6.428,0,0,1,183.181,239.5Zm94.886,0.729a2.727,2.727,0,0,1,1.665,3.33c-3.422,1.358-8.563,4.53-13.942,3.122v-0.1c0.035-.069.069-0.139,0.1-0.208,2.039-1.087,3.9-2.657,6.138-3.643ZM302,242.93h0.313c0,1.136-.174,4.119-0.833,4.787l-5.514,2.5c-4.286,1.874-9.032,4.881-14.878,4.891-0.035-.069-0.069-0.139-0.1-0.208,0.519-1.207.73-2.951,1.769-3.643l5.514-1.457C292.7,248.251,298.79,245.777,302,242.93ZM203.677,244.6c4.437-.116,11.512,1.587,12.069,4.787-5.921.144-7.146-.611-10.4-3.226C204.739,245.672,203.812,245.222,203.677,244.6Zm66.795,3.746,8.115,0.1q-0.052,1.25-.1,2.5c-2.476.723-10.041,2.463-12.9,1.457a8.031,8.031,0,0,1,.208-2.914Zm-62.321,2.706c4.894-.1,10.189.387,11.861,3.435-0.035.069-.07,0.138-0.1,0.208-4.734.09-10.808,0.567-13.006-2.186A1.842,1.842,0,0,1,208.151,251.047Zm-17.271.625c5.268,0.026,8.688,1.572,12.485,2.81V254.9c-2.26-.26-6.093,1.365-7.8,2.394q-1.2.78-2.393,1.561-1.2-1.874-2.393-3.747-0.261-1.612-.52-3.226c0.034-.035.069-0.07,0.1-0.1Zm108,0.208,1.457,0.1c0.035,0.069.069,0.139,0.1,0.208-0.613,7.179-10.56,7.984-16.959,9.159l-6.034.208v-0.625c2.382-5.016,3.694-2.787,8.739-4.475l8.74-3.643ZM268.6,253.961c4.379-.083,6.638.224,8.323,2.81-1.834,3.451-11.66,1.631-13.317-.728C264.855,254.4,266.447,254.8,268.6,253.961Zm-62.217,2.186,4.682,0.52h3.121c4.961,0.822,9.77.391,13.526,2.186,3.185,1.522,5.528,4.506,8.843,6.036l9.572,2.81c2.538,1.183,4.324,3.931,6.451,5.62,3.282,2.607,6.932,4.468,9.78,7.493-0.035.1-.07,0.208-0.1,0.312-1.932-.538-3.678-0.612-5.2-1.457-4.687-2.595-7.68-7.07-12.485-9.47a8.866,8.866,0,0,1-3.329,1.249c-4.9-2.419-8.759-6.3-13.942-8.534-4.958-2.141-11.086-2.232-17.791-2.5-2.113-.084-3.866,1.144-5.826,1.353v-0.1Q205.03,258.9,206.382,256.147Zm54.414,2.914c4.98-.1,9.51.566,12.9,2.29l-0.312.416-2.6,1.977C268.3,263.362,261.425,260.939,260.8,259.061Zm18.519,46.625c-7.152.119-8.809-5.1-14.565-5.932,0.034,0.1.069,0.208,0.1,0.312-0.369,3,3.625,3.493,5.618,4.579,5.453,2.971,12.11,4.956,13.837,11.344,0.239,0.884,1.006,2.386.729,3.33-3.569-.268-7.079-0.352-9.78-1.457-2.289-.936-3.707-3.1-6.035-4.058-0.965-.4-2.818.045-3.537-0.313-2.641,1.1-4.274,6.241-6.763,8.118h-0.312c-1.642-1.787-5.274-6.019-8.011-6.348,0.943,4.526,4.883,6.927,5.826,11.968,0.605,3.233-1.363,6.088-4.37,5.62-8.026-1.25-5.42-20.551-9.259-26.747a7.492,7.492,0,0,0-2.913-.1c-0.6,2.25,1.362,3.5,1.768,5.1,0.716,2.817-3.966,6.779-2.5,10.615,1.939,5.061,6.248,7.938,8.74,12.385,1.836,3.277,1.977,8.73,1.977,13.738a16.926,16.926,0,0,1-.625,5.2c-0.921,2.853-7.571,4.5-9.884,6.453a24.682,24.682,0,0,0-4.265,4.163c-1.428,1.978-2.5,4.5-4.266,6.14h-0.208l-1.977-2.081c-1.816.127-3.474,0.508-5.618,0.52,0.034-.1.069-0.208,0.1-0.312,2.947-1.115,6.592-3.291,8.427-5.62a30.8,30.8,0,0,1,5.827-6.141c2.132-1.511,7.364-4.467,8.219-6.868a15.577,15.577,0,0,0,.1-6.141c-0.475-2.59-.3-4.22-1.145-6.244-1.656-3.959-5.334-6.58-6.97-10.512-0.891-2.139.192-5.962-.833-7.909-0.926-1.761-4.224-2.512-5.826-3.643a30.7,30.7,0,0,1-7.8-8.534c-2-3.248-3.112-7.879-3.954-11.344-0.694-2.855-.264-6.526-2.081-8.222h-0.1l-1.872,6.453c-3.375-.436-7.529-5.26-9.156-7.7q-1.041-1.77-2.081-3.539-0.676,1.821-1.352,3.643c-1.707,2.914-10.272,10.864-15.295,7.077-1.634-1.233-2.915-3.583-4.057-5.308l-0.312.208c-0.823,2.6-3.045,4.5-4.89,6.14-0.07-.034-0.139-0.069-0.208-0.1v-0.1a10.716,10.716,0,0,1,4.89-7.6V285.6c-2.8-2.04-6.156-5.5-7.595-8.847a24.723,24.723,0,0,1,8.427-10.3c0.886-.645,3.388-2.586,4.474-1.873-2.309,4.556-7.237,6.568-9.676,10.823H178.6c3.447-1.42,6.675-2.063,8.739-4.787,3.085-4.069,5.831-10.052,11.549-11.344,0.035,0.069.069,0.139,0.1,0.208l-3.745,6.869h0.1l3.121-.728c2.226-.856,4.06-2.1,6.659-2.706,10.315-2.4,20.826,1.137,27.155,4.891l5.93,3.955c3.183,1.8,7.392,2.671,10.508,4.683l6.971,6.349c3.245,2.192,8.1-.122,12.485.936,2.689,0.65,4.929,4.953,5.514,7.7l-2.6,2.185c0.693,1.817,6.442,2.847,7.075,6.453-3.864-.717-6.315-3.32-10.82-3.851C268.372,300.7,278.641,301.161,279.315,305.686Zm16.127-44.544,3.849,0.1a10.167,10.167,0,0,1-6.346,5.308c-2.939.839-15.148,0.357-17.375-.52l-2.081-1.769,0.1-.209a71.175,71.175,0,0,0,17.895-2.393ZM260.38,263.12a16.463,16.463,0,0,1,4.994,1.457,1.3,1.3,0,0,1-.312.728c-4.073.583-5.319,1.356-8.532-.936l0.312-.417Zm7.907,2.914,5.306,1.665,9.364,1.457,7.283,0.833-0.416.52a32.952,32.952,0,0,1-4.266,1.665c-6.911,1.754-14.7-2.336-19.352-4.163V267.7Zm-51.6,5.828q-0.051-1.509-.1-3.018c-0.781-.972-8.26-3.455-10.82-2.706-3.639,1.065-6.372,5.714-7.7,9.158q-0.573,1.717-1.145,3.435c-1.595,2.546-4.66,3.773-7.179,5.412v4.163h0.1c6.778-3.867,9.91-12,14.046-18.526C209.234,268.644,212.254,271.706,216.682,271.862Zm35.27-5.516c4.617,1.2,5.748,5.043,9.364,7.077,2.256,1.269,6.071,2.468,6.763,5.2-8.935-.482-11.65-6.976-16.335-11.969Zm11.029,3.747c4.419,1.078,14.763,2.4,16.959,5.62-0.07.173-.139,0.347-0.208,0.52l-3.746,1.041c-6.231,1.215-11.125-3.941-13.629-6.973v-0.1Zm-66.171.832-8.219,5.412q0.053-2.55.1-5.1l-0.312.209-2.393,3.538c-1.531,2.421-2.957,5.249-4.994,7.181,0.069,0.07.139,0.139,0.208,0.208,7.255-1.292,9.426-1.745,13.525-6.556C195.2,275.27,197.782,271.583,196.81,270.925Zm-10.2,6.141,0.832,0.312,1.041,1.977c-0.035.1-.069,0.208-0.1,0.312-1.105.048-3.214,0.623-4.058,0A13.462,13.462,0,0,1,186.614,277.066ZM67.278,279.043c-0.511.9-.35,1.641-0.624,3.122-1.326,7.151,1.371,11.752,4.786,15.195a4.528,4.528,0,0,0,1.977,1.665c1.411-7.347.425-12.312-3.329-17.172C69.331,280.874,68.49,279.534,67.278,279.043Zm366.643,1.977a24.75,24.75,0,0,0-3.537,2.6c-3.393,3.775-4.32,9.6-3.641,16.548h0.416c5.188-1.68,6.687-6.706,7.075-12.905C434.333,285.677,434.772,282.135,433.921,281.02Zm-256.046.937,0.624,0.1-4.89,13.009-0.52-.1q-0.468-1.509-.937-3.018C171.2,286.377,175.261,284.136,177.875,281.957Zm69.083,4.371c2,4.571,4.928,7.163,8.844,9.783,0.919,0.615,1.748,1.636,3.017,1.873-1.962-4.867-5.51-7.445-9.572-10.2A6.335,6.335,0,0,0,246.958,286.328Zm-18.207,2.5c0.131,6.831,9.316,12.116,13.734,15.507,2.327,1.786,4.24,4.268,6.97,5.62-1.015-5.978-10.1-9.373-13.525-13.634C233.881,293.768,231.733,290.387,228.751,288.826Zm17.375,6.14c0.309,2.413,3.3,5.647,5.41,6.245v-0.1C250.366,298.79,248.615,295.9,246.126,294.966Zm-24.346.1c-0.176,7.9,6.34,11.289,9.988,15.82,1.306,1.621,4.01,5.072,6.347,5.1l-0.312-4.371c-0.7-1.408-3.119-2.4-4.474-3.226a22.151,22.151,0,0,1-6.555-5.62C225.211,300.563,224.272,296.272,221.78,295.07Zm4.682,2.394c-0.524,3.18,5.432,8.3,8.011,9.054C233.857,303.758,228.861,298.555,226.462,297.464Zm48.38,24.665c6.818,0.308,16.067,1.819,20.808,4.476,6.74,3.777,11.841,9.859,17.687,14.57a59.256,59.256,0,0,1,7.075,7.181c2.3,2.614,5.317,4.9,7.075,8.014-5.69-1.074-11.077-4.95-15.607-7.7-3.194-1.941-6.518-3.826-9.467-6.036l-9.052-7.91-5.514-4.267-0.208.1v0.1c0.74,4.33,3.933,6.984,6.762,9.263a199.87,199.87,0,0,0,23.93,16.548c3.6,2.128,10.71,4.929,12.069,8.95-6.826-.738-12.238-4.59-16.959-7.7-10.386-6.845-20.426-13.866-28.091-23.417-2.573-3.2-5.535-6.115-8.115-9.367C276.505,324.02,275.286,323.3,274.842,322.129ZM289.2,364.7H284c-1.4-.48-3.391-6.252-4.265-7.805-2.484-4.411-4.881-9.038-7.6-13.217-1.215-1.871-2.225-4.376-3.953-5.724a4.348,4.348,0,0,0-2.185.208c2.024,5.4,4.023,11,6.971,15.611,1.865,2.914,5.753,7.507,6.242,11.344l-2.6.52c-2.33-3.573-4.087-13.432-8.739-14.05,0.384,4.679,4.232,9.543,3.433,14.05-3.629-.1-4.3-2.636-5.618-5.308l-5.2-10.511L258.2,345.65v0.208q0.1,1.977.208,3.955c0.574,3.367.743,5.993,1.665,8.846l1.872,5.724c-2.313-1.409-5.7-5.055-8.531-5.412-1.334-.168-4.7,1.951-5.722,2.5l-12.069,6.765a6.677,6.677,0,0,1,1.665-2.394c3.975-5.181,11.217-6.23,14.877-10.823a151.474,151.474,0,0,1,.625-15.3l0.208-.1,0.208,0.1,4.37,5.412c0.069-.035.138-0.07,0.208-0.1,0-4.852-.016-10.538.832-14.571,1,0.67,1.5,2.1,2.7,2.5,0.94-4.36,3.25-11.03,8.428-10.095l5.618,5.932,6.554,6.453a176.559,176.559,0,0,0,16.023,14.778l9.26,7.285c3.434,2.1,6.837,3.871,9.259,6.973l-0.208.208a32.378,32.378,0,0,1-9.78.1c-1.841-3.4-4.649-7.62-7.6-9.991l-4.265-3.538c-3.905-3.854-7.692-7.745-11.965-11.24-2.526-2.066-5.581-7.224-8.74-8.222v0.625c3.514,11.344,12.944,15.2,19.456,23.312l4.266,5.62,1.664,3.226c-0.069.1-.138,0.208-0.208,0.312l-4.89-.1c-1.316-.722-2.14-2.752-3.017-3.954-2.912-4-9.416-14.914-14.254-16.028v0.313c1.711,5.989,5.863,9.935,9.052,14.57C286.927,360.878,288.963,362.833,289.2,364.7ZM83.4,328.166c-0.168,8.224,1.673,12.157,5.306,16.339,0.635,0.731,4.119,3.377,5.41,2.5q-0.052-3.018-.1-6.036C93.1,336.741,87.135,329.174,83.4,328.166Zm333.35,1.353c-3.317,4.33-10.958,8.324-10.092,16.339q0.1,1.874.208,3.747c5.535-2.586,8.581-6.668,10.092-13.322,0.349-1.537.962-5.487-.1-6.764h-0.1Zm-69.292,31.846c5.637-.173,6.453,8.555,1.456,9.679-3.229.726-6.2-3.2-5.306-6.349C344.145,362.815,345.841,362.194,347.463,361.365Zm-194.662.416c5.161-.117,5.576,6.131,2.289,8.534-3.654,2.672-5.6-1.765-7.283-3.642,0.675-1.384,1.789-3.986,3.225-4.579Zm24.762,5,40.368,0.208c0.766,2.934-.168,6.361,1.872,7.91l2.6,0.52A14.6,14.6,0,0,1,227.4,377.5c1.574-.281,4.606-3.05,6.138-3.955,4.464-2.638,11.247-5.75,16.959-6.765,5.513-.98,7.028,3.953,12.485,3.018,2.357-.4,2.966-2.5,5.2-2.914H327.9l-1.977,4.059c-1.491,3.4-3.886,10.008-3.017,15.3a77.448,77.448,0,0,0,4.058,15.09c1.062,2.882,3,6.1,3.329,9.471H176.938l2.913-5.62a64.031,64.031,0,0,0,3.85-10.3c2.589-9.692-6.042-23.957-11.237-27.788v-0.1l0.1-.1Zm75.638,1.665-4.37,4.579c-1.527,2.3-1.824,5.645-3.017,8.222-0.992,2.142-2.832,4.348-3.642,6.661-6.9.033-15.628,0.45-21.744-.729-5.328-1.026-10.323-1.832-15.5-2.706-5.917-1-9.113,2.565-9.676,7.077,1.691-.409,2.839-1.711,4.682-2.081,1.694-.34,3.544.56,4.785,0.937l11.549,2.81c8.4,2.433,24.535,2.861,33.606.832,6.311-1.411,15.087-3.741,15.086-11.032,0-1.777-.1-3.176-0.833-4.267-3.078-4.554-11.8,1.569-14.357,2.29l-0.1-.208a16.337,16.337,0,0,1,1.457-3.33c1.466-2.131,3.993-3.183,2.913-6.765A5.62,5.62,0,0,0,253.2,368.442ZM300.956,370c-2.067,1.243-4.105,1.524-5.722,3.122-3.719,3.676-5.007,10.1-8.115,14.675-5.469.443-14.416-.924-18.728,0.936-5.384,2.323-7.631,8.069-11.965,11.449-2.275,1.774-5.833,2.71-7.7,4.891v0.1c1.481-.008,4.413.365,6.347-0.1,3.935-.955,7.755-4.094,9.988-6.869,1.2-1.5,4.744-5.849,6.45-6.452,1.756-.622,4.365.257,5.723,0.624a26.153,26.153,0,0,0,10.2.729L289.2,393c1.265-.673,2.595-2.616,3.33-3.85,1.6-2.68,2.543-5.782,3.745-8.846l3.017-5.725C299.715,373.749,301.567,370.517,300.956,370Zm6.763,0c-5.938,6.173-8.413,16.712-10.092,27.059,0.069,0.035.138,0.07,0.208,0.1,4.633-3.234,5.992-8.763,7.7-14.986q0.624-3.018,1.248-6.036C306.814,374.871,308.233,370.671,307.719,370Zm33.605,1.353a11.343,11.343,0,0,1,4.162,3.747c2.695,4.5,3.4,21.506,1.561,28a24.011,24.011,0,0,1-3.33,7.181c-4.828.014-6.415-2.675-8.323-5.516a61.246,61.246,0,0,1-8.636-20.919c-1.255-5.581,1.867-9.219,5.619-10.824,0.851-.364,2.268-1.031,3.433-0.728-0.128,9.758-.726,24.459,7.179,26.122V398.1c-0.574-2.214-.346-4.125-0.936-6.244C340.267,385.455,337.279,377.577,341.324,371.356Zm-62.737.208c-1.537,1.023-2.873,1.67-3.954,3.123a8.989,8.989,0,0,0,2.5,3.226l3.641-3.331C281.114,373.921,279.154,371.746,278.587,371.564Zm-162.617,2.81a5.978,5.978,0,0,0,.832,2.914A18.669,18.669,0,0,0,127.518,387.9c0.863,0.37,5,2.208,5.931,1.561l-1.665-5C129.023,378.3,123.287,376.065,115.97,374.374Zm82.3,0.313c-1.631.806-3.58,1.075-3.642,3.434,1.3,2.521,11.044,2.224,12.8.416v-3.122h-0.209l-5.618.416C200.462,375.535,199.8,374.752,198.267,374.687Zm-32.149,1.04,0.52,0.1c-0.095,10.233-1.32,20.532,6.035,23.937,0.158-.238.19-0.126,0.1-0.416,0.866-3.125-1.586-9.349-2.393-11.552q-0.261-2.082-.521-4.163c-0.665-3.679.107-8.1,3.642-7.181,4.507,3.246,4.987,19.25,3.433,26.643-0.636,3.027-1.484,6.862-4.682,7.181-3.252.324-4.839-2.831-6.034-4.684a57.081,57.081,0,0,1-6.659-15.194c-0.637-2.117-1.7-5.738-.832-8.534C159.89,378.144,163.294,377.787,166.118,375.727Zm218.071,0.937c-1.775.733-3.938,0.51-5.618,1.145-5.682,2.147-10.886,6.849-11.132,14.05h0.1c9.72-3.272,13.208-6.545,17.687-14.987-0.035-.069-0.069-0.139-0.1-0.208h-0.937Zm-110.492.52c-1.112,1.043-4.063,1.492-4.578,3.018l3.85,2.706,2.393-.416c1.33-.244,2.13.359,3.017,0.52,1.754,0.321,3.915-1.093,4.786-1.873-0.75-1.383-1.23-2.992-2.393-3.955h-0.416a6.847,6.847,0,0,1-3.225,2.186A6.582,6.582,0,0,0,273.7,377.184Zm-17.167,4.267,0.312,0.1q0.053,1.77.1,3.539l-2.184,1.145a22.66,22.66,0,0,1-5.827,1.457C250.015,384,253.891,383.59,256.53,381.451ZM140.836,406.533a4.7,4.7,0,0,1-.312,9.367c-1.756-.577-5.676-4.065-3.954-6.869C137.443,407.61,139.143,407.209,140.836,406.533Zm218.592,0.1c3.66-.042,3.926,2.105,5.514,4.059-0.765,2.453-2.1,3.512-3.226,5.412C355.465,415.818,353.636,409.537,359.428,406.637Zm-164.491,8.43,5.307,0.1,10.092,1.249,8.531,1.977c5.682,1.953,11.005,3.491,16.439,5.829l12.277,5.619c1.233,0.618,3.1,2.243,5.1,1.874,2.44-.452,4.019-2.044,5.93-3.018l7.7-3.018,7.075-3.227,15.606-5.1c3.224-1.176,6.91-.91,10.508-1.561,3.286-.595,9.753-1.456,13.526-0.625l17.063,3.643c3.618,0.739,5.78-2.444,8.531-3.018,6.337-1.324,12.589,4.587,15.711,6.868v0.105q-2.238,1.507-4.474,3.018l-1.041,2.914c-0.979,1.988-3.591,3.454-5.618,4.371-16.648,7.528-36.8,3.437-48.483-5.828l0.208-.313,5.826-1.248c5.5-1.066,12.063-.5,15.918-3.123v-0.1c-13.658-5.255-29.778,2.078-39.535,5.932-5.961,2.355-12.673,3.785-17.584,7.182l0.209,0.312,4.889,2.914c5.127,2.662,9.834,5.736,14.774,8.43,1.649,0.9,6.257,3.007,6.763,4.683,0.58,1.919-.735,6.053-0.936,7.91-1.16-.31-1.951-1.517-2.809-2.186l-6.867-5.2c-7.055-5.018-14.842-10.262-23.2-13.737-7.66,2.855-13.554,8.56-20.08,12.593L220.532,459.4l-0.312-.208c-0.544-2.424-1.855-4.994-1.561-7.805l3.017-2.186c2.44-1.5,4.926-2.9,7.283-4.371l16.335-9.054c-0.035-.1-0.07-0.208-0.1-0.313-2.849-2.995-8.512-4.033-12.693-5.62l-20.08-7.285-7.8-1.353c-4.669-1.012-12.594-.947-15.814,1.249l0.208,0.1c2.632,2.869,16.743,2.459,21.225,4.58l-0.208.312-6.035,3.746a58.513,58.513,0,0,1-9.468,4.372c-11.361,3.84-29.33.974-36.726-4.788-1.488-1.158-1.746-3.707-2.914-5.2l-4.369-2.5c0.034-.1.069-0.208,0.1-0.312,1.351-2.817,10.471-8.041,15.294-6.973,3.243,0.717,5.926,2.1,9.364,2.7,1.832,0.322,3.181-.467,4.369-0.832l8.116-1.977Z"/>
</svg>
